<svg class="main-svg" xmlns="http://www.w3.org/2000/svg" xmlns:xlink="http://www.w3.org/1999/xlink" width="700" height="500" style="" viewBox="0 0 700 500"><rect x="0" y="0" width="700" height="500" style="fill: rgb(255, 255, 255); fill-opacity: 1;"/><defs id="defs-2af8e9"><g class="clips"><clipPath id="clip2af8e9xyplot" class="plotclip"><rect width="505" height="280"/></clipPath><clipPath class="axesclip" id="clip2af8e9x"><rect x="100" y="0" width="505" height="500"/></clipPath><clipPath class="axesclip" id="clip2af8e9y"><rect x="0" y="100" width="700" height="280"/></clipPath><clipPath class="axesclip" id="clip2af8e9xy"><rect x="100" y="100" width="505" height="280"/></clipPath></g><g class="gradients"/><g class="patterns"/></defs><g class="bglayer"/><g class="layer-below"><g class="imagelayer"/><g class="shapelayer"/></g><g class="cartesianlayer"><g class="subplot xy"><g class="layer-subplot"><g class="shapelayer"/><g class="imagelayer"/></g><g class="gridlayer"><g class="x"/><g class="y"/></g><g class="zerolinelayer"/><path class="xlines-below"/><path class="ylines-below"/><g class="overlines-below"/><g class="xaxislayer-below"/><g class="yaxislayer-below"/><g class="overaxes-below"/><g class="plot" transform="translate(100,100)" clip-path="url(#clip2af8e9xyplot)"><g class="scatterlayer mlayer"><g class="trace scatter trace1a1682" style="stroke-miterlimit: 2; opacity: 1;"><g class="fills"/><g class="errorbars"/><g class="lines"><path class="js-line" d="M31.5,259.75L119.9,255.85L208.3,256.85L296.7,254.18L385.1,242.7L473.5,21.77" style="vector-effect: non-scaling-stroke; fill: none; stroke: rgb(255, 198, 196); stroke-opacity: 1; stroke-width: 3px; opacity: 1;"/></g><g class="points"><path class="point" transform="translate(31.5,259.75)" d="M5,0A5,5 0 1,1 0,-5A5,5 0 0,1 5,0Z" style="opacity: 1; stroke-width: 0px; fill: rgb(255, 198, 196); fill-opacity: 1;"/><path class="point" transform="translate(119.9,255.85)" d="M5,0A5,5 0 1,1 0,-5A5,5 0 0,1 5,0Z" style="opacity: 1; stroke-width: 0px; fill: rgb(255, 198, 196); fill-opacity: 1;"/><path class="point" transform="translate(208.3,256.85)" d="M5,0A5,5 0 1,1 0,-5A5,5 0 0,1 5,0Z" style="opacity: 1; stroke-width: 0px; fill: rgb(255, 198, 196); fill-opacity: 1;"/><path class="point" transform="translate(296.7,254.18)" d="M5,0A5,5 0 1,1 0,-5A5,5 0 0,1 5,0Z" style="opacity: 1; stroke-width: 0px; fill: rgb(255, 198, 196); fill-opacity: 1;"/><path class="point" transform="translate(385.1,242.7)" d="M5,0A5,5 0 1,1 0,-5A5,5 0 0,1 5,0Z" style="opacity: 1; stroke-width: 0px; fill: rgb(255, 198, 196); fill-opacity: 1;"/><path class="point" transform="translate(473.5,21.77)" d="M5,0A5,5 0 1,1 0,-5A5,5 0 0,1 5,0Z" style="opacity: 1; stroke-width: 0px; fill: rgb(255, 198, 196); fill-opacity: 1;"/></g><g class="text"/></g><g class="trace scatter trace484fb4" style="stroke-miterlimit: 2; opacity: 1;"><g class="fills"/><g class="errorbars"/><g class="lines"><path class="js-line" d="M31.5,241.35L119.9,212.53L208.3,222.98L385.1,131.63L473.5,20.25" style="vector-effect: non-scaling-stroke; fill: none; stroke: rgb(244, 163, 168); stroke-opacity: 1; stroke-width: 3px; opacity: 1;"/></g><g class="points"><path class="point" transform="translate(31.5,241.35)" d="M5,0A5,5 0 1,1 0,-5A5,5 0 0,1 5,0Z" style="opacity: 1; stroke-width: 0px; fill: rgb(244, 163, 168); fill-opacity: 1;"/><path class="point" transform="translate(119.9,212.53)" d="M5,0A5,5 0 1,1 0,-5A5,5 0 0,1 5,0Z" style="opacity: 1; stroke-width: 0px; fill: rgb(244, 163, 168); fill-opacity: 1;"/><path class="point" transform="translate(208.3,222.98)" d="M5,0A5,5 0 1,1 0,-5A5,5 0 0,1 5,0Z" style="opacity: 1; stroke-width: 0px; fill: rgb(244, 163, 168); fill-opacity: 1;"/><path class="point" transform="translate(296.7,177.33)" d="M5,0A5,5 0 1,1 0,-5A5,5 0 0,1 5,0Z" style="opacity: 1; stroke-width: 0px; fill: rgb(244, 163, 168); fill-opacity: 1;"/><path class="point" transform="translate(385.1,131.63)" d="M5,0A5,5 0 1,1 0,-5A5,5 0 0,1 5,0Z" style="opacity: 1; stroke-width: 0px; fill: rgb(244, 163, 168); fill-opacity: 1;"/><path class="point" transform="translate(473.5,20.25)" d="M5,0A5,5 0 1,1 0,-5A5,5 0 0,1 5,0Z" style="opacity: 1; stroke-width: 0px; fill: rgb(244, 163, 168); fill-opacity: 1;"/></g><g class="text"/></g><g class="trace scatter trace0d13d4" style="stroke-miterlimit: 2; opacity: 1;"><g class="fills"/><g class="errorbars"/><g class="lines"><path class="js-line" d="M31.5,169.13L119.9,156.17L208.3,63.3L296.7,35.54L385.1,27.01L473.5,25.39" style="vector-effect: non-scaling-stroke; fill: none; stroke: rgb(227, 129, 145); stroke-opacity: 1; stroke-width: 3px; opacity: 1;"/></g><g class="points"><path class="point" transform="translate(31.5,169.13)" d="M5,0A5,5 0 1,1 0,-5A5,5 0 0,1 5,0Z" style="opacity: 1; stroke-width: 0px; fill: rgb(227, 129, 145); fill-opacity: 1;"/><path class="point" transform="translate(119.9,156.17)" d="M5,0A5,5 0 1,1 0,-5A5,5 0 0,1 5,0Z" style="opacity: 1; stroke-width: 0px; fill: rgb(227, 129, 145); fill-opacity: 1;"/><path class="point" transform="translate(208.3,63.3)" d="M5,0A5,5 0 1,1 0,-5A5,5 0 0,1 5,0Z" style="opacity: 1; stroke-width: 0px; fill: rgb(227, 129, 145); fill-opacity: 1;"/><path class="point" transform="translate(296.7,35.54)" d="M5,0A5,5 0 1,1 0,-5A5,5 0 0,1 5,0Z" style="opacity: 1; stroke-width: 0px; fill: rgb(227, 129, 145); fill-opacity: 1;"/><path class="point" transform="translate(385.1,27.01)" d="M5,0A5,5 0 1,1 0,-5A5,5 0 0,1 5,0Z" style="opacity: 1; stroke-width: 0px; fill: rgb(227, 129, 145); fill-opacity: 1;"/><path class="point" transform="translate(473.5,25.39)" d="M5,0A5,5 0 1,1 0,-5A5,5 0 0,1 5,0Z" style="opacity: 1; stroke-width: 0px; fill: rgb(227, 129, 145); fill-opacity: 1;"/></g><g class="text"/></g></g></g><g class="overplot"/><path class="xlines-above crisp" d="M98,381H605" style="fill: none; stroke-width: 2px; stroke: rgb(0, 0, 0); stroke-opacity: 1;"/><path class="ylines-above crisp" d="M99,100V380" style="fill: none; stroke-width: 2px; stroke: rgb(0, 0, 0); stroke-opacity: 1;"/><g class="overlines-above"/><g class="xaxislayer-above"><path class="xtick ticks crisp" d="M0,382v5" transform="translate(131.5,0)" style="stroke: rgb(68, 68, 68); stroke-opacity: 1; stroke-width: 2px;"/><path class="xtick ticks crisp" d="M0,382v5" transform="translate(219.9,0)" style="stroke: rgb(68, 68, 68); stroke-opacity: 1; stroke-width: 2px;"/><path class="xtick ticks crisp" d="M0,382v5" transform="translate(308.3,0)" style="stroke: rgb(68, 68, 68); stroke-opacity: 1; stroke-width: 2px;"/><path class="xtick ticks crisp" d="M0,382v5" transform="translate(396.7,0)" style="stroke: rgb(68, 68, 68); stroke-opacity: 1; stroke-width: 2px;"/><path class="xtick ticks crisp" d="M0,382v5" transform="translate(485.1,0)" style="stroke: rgb(68, 68, 68); stroke-opacity: 1; stroke-width: 2px;"/><path class="xtick ticks crisp" d="M0,382v5" transform="translate(573.5,0)" style="stroke: rgb(68, 68, 68); stroke-opacity: 1; stroke-width: 2px;"/><g class="xtick"><text text-anchor="middle" x="0" y="406.2" transform="translate(131.5,0)" style="font-family: 'Fira Sans'; font-size: 16px; fill: rgb(0, 0, 0); fill-opacity: 1; white-space: pre; opacity: 1;">1</text></g><g class="xtick"><text text-anchor="middle" x="0" y="406.2" style="font-family: 'Fira Sans'; font-size: 16px; fill: rgb(0, 0, 0); fill-opacity: 1; white-space: pre; opacity: 1;" transform="translate(219.9,0)">2</text></g><g class="xtick"><text text-anchor="middle" x="0" y="406.2" style="font-family: 'Fira Sans'; font-size: 16px; fill: rgb(0, 0, 0); fill-opacity: 1; white-space: pre; opacity: 1;" transform="translate(308.3,0)">3</text></g><g class="xtick"><text text-anchor="middle" x="0" y="406.2" style="font-family: 'Fira Sans'; font-size: 16px; fill: rgb(0, 0, 0); fill-opacity: 1; white-space: pre; opacity: 1;" transform="translate(396.7,0)">4</text></g><g class="xtick"><text text-anchor="middle" x="0" y="406.2" style="font-family: 'Fira Sans'; font-size: 16px; fill: rgb(0, 0, 0); fill-opacity: 1; white-space: pre; opacity: 1;" transform="translate(485.1,0)">5</text></g><g class="xtick"><text text-anchor="middle" x="0" y="406.2" style="font-family: 'Fira Sans'; font-size: 16px; fill: rgb(0, 0, 0); fill-opacity: 1; white-space: pre; opacity: 1;" transform="translate(573.5,0)">6</text></g></g><g class="yaxislayer-above"><path class="ytick ticks crisp" d="M98,0h-5" transform="translate(0,330.2)" style="stroke: rgb(68, 68, 68); stroke-opacity: 1; stroke-width: 2px;"/><path class="ytick ticks crisp" d="M98,0h-5" transform="translate(0,276.08000000000004)" style="stroke: rgb(68, 68, 68); stroke-opacity: 1; stroke-width: 2px;"/><path class="ytick ticks crisp" d="M98,0h-5" transform="translate(0,221.97)" style="stroke: rgb(68, 68, 68); stroke-opacity: 1; stroke-width: 2px;"/><path class="ytick ticks crisp" d="M98,0h-5" transform="translate(0,167.85)" style="stroke: rgb(68, 68, 68); stroke-opacity: 1; stroke-width: 2px;"/><path class="ytick ticks crisp" d="M98,0h-5" transform="translate(0,113.73)" style="stroke: rgb(68, 68, 68); stroke-opacity: 1; stroke-width: 2px;"/><g class="ytick"><text text-anchor="end" x="89.8" y="5.6" transform="translate(0,330.2)" style="font-family: 'Fira Sans'; font-size: 16px; fill: rgb(0, 0, 0); fill-opacity: 1; white-space: pre; opacity: 1;">20</text></g><g class="ytick"><text text-anchor="end" x="89.8" y="5.6" style="font-family: 'Fira Sans'; font-size: 16px; fill: rgb(0, 0, 0); fill-opacity: 1; white-space: pre; opacity: 1;" transform="translate(0,276.08000000000004)">40</text></g><g class="ytick"><text text-anchor="end" x="89.8" y="5.6" style="font-family: 'Fira Sans'; font-size: 16px; fill: rgb(0, 0, 0); fill-opacity: 1; white-space: pre; opacity: 1;" transform="translate(0,221.97)">60</text></g><g class="ytick"><text text-anchor="end" x="89.8" y="5.6" style="font-family: 'Fira Sans'; font-size: 16px; fill: rgb(0, 0, 0); fill-opacity: 1; white-space: pre; opacity: 1;" transform="translate(0,167.85)">80</text></g><g class="ytick"><text text-anchor="end" x="89.8" y="5.6" style="font-family: 'Fira Sans'; font-size: 16px; fill: rgb(0, 0, 0); fill-opacity: 1; white-space: pre; opacity: 1;" transform="translate(0,113.73)">100</text></g></g><g class="overaxes-above"/></g></g><g class="polarlayer"/><g class="ternarylayer"/><g class="geolayer"/><g class="funnelarealayer"/><g class="pielayer"/><g class="iciclelayer"/><g class="treemaplayer"/><g class="sunburstlayer"/><g class="glimages"/><defs id="topdefs-2af8e9"><g class="clips"/><clipPath id="legend2af8e9"><rect width="73" height="107" x="0" y="0"/></clipPath></defs><g class="layer-above"><g class="imagelayer"/><g class="shapelayer"/></g><g class="infolayer"><g class="legend" pointer-events="all" transform="translate(615.1,100)"><rect class="bg" shape-rendering="crispEdges" style="stroke: rgb(68, 68, 68); stroke-opacity: 1; fill: rgb(255, 255, 255); fill-opacity: 1; stroke-width: 0px;" width="73" height="107" x="0" y="0"/><g class="scrollbox" transform="" clip-path="url(#legend2af8e9)"><text class="legendtitletext" text-anchor="start" x="2" y="24.7" style="font-family: 'Fira Sans'; font-size: 19px; fill: rgb(0, 0, 0); fill-opacity: 1; white-space: pre;">meta</text><g class="groups" transform=""><g class="traces" transform="translate(0,41.6)" style="opacity: 1;"><text class="legendtext" text-anchor="start" x="40" y="6.24" style="font-family: 'Fira Sans'; font-size: 16px; fill: rgb(0, 0, 0); fill-opacity: 1; white-space: pre;">0.0</text><g class="layers" style="opacity: 1;"><g class="legendfill"/><g class="legendlines"><path class="js-line" d="M5,0h30" style="fill: none; stroke: rgb(255, 198, 196); stroke-opacity: 1; stroke-width: 3px;"/></g><g class="legendsymbols"><g class="legendpoints"><path class="scatterpts" transform="translate(20,0)" d="M5,0A5,5 0 1,1 0,-5A5,5 0 0,1 5,0Z" style="opacity: 1; stroke-width: 0px; fill: rgb(255, 198, 196); fill-opacity: 1;"/></g></g></g><rect class="legendtoggle" x="0" y="-11.9" width="68" height="23.8" style="fill: rgb(0, 0, 0); fill-opacity: 0;"/></g></g><g class="groups" transform=""><g class="traces" transform="translate(0,65.4)" style="opacity: 1;"><text class="legendtext" text-anchor="start" x="40" y="6.24" style="font-family: 'Fira Sans'; font-size: 16px; fill: rgb(0, 0, 0); fill-opacity: 1; white-space: pre;">0.7</text><g class="layers" style="opacity: 1;"><g class="legendfill"/><g class="legendlines"><path class="js-line" d="M5,0h30" style="fill: none; stroke: rgb(244, 163, 168); stroke-opacity: 1; stroke-width: 3px;"/></g><g class="legendsymbols"><g class="legendpoints"><path class="scatterpts" transform="translate(20,0)" d="M5,0A5,5 0 1,1 0,-5A5,5 0 0,1 5,0Z" style="opacity: 1; stroke-width: 0px; fill: rgb(244, 163, 168); fill-opacity: 1;"/></g></g></g><rect class="legendtoggle" x="0" y="-11.9" width="68" height="23.8" style="fill: rgb(0, 0, 0); fill-opacity: 0;"/></g></g><g class="groups" transform=""><g class="traces" transform="translate(0,89.2)" style="opacity: 1;"><text class="legendtext" text-anchor="start" x="40" y="6.24" style="font-family: 'Fira Sans'; font-size: 16px; fill: rgb(0, 0, 0); fill-opacity: 1; white-space: pre;">1.35</text><g class="layers" style="opacity: 1;"><g class="legendfill"/><g class="legendlines"><path class="js-line" d="M5,0h30" style="fill: none; stroke: rgb(227, 129, 145); stroke-opacity: 1; stroke-width: 3px;"/></g><g class="legendsymbols"><g class="legendpoints"><path class="scatterpts" transform="translate(20,0)" d="M5,0A5,5 0 1,1 0,-5A5,5 0 0,1 5,0Z" style="opacity: 1; stroke-width: 0px; fill: rgb(227, 129, 145); fill-opacity: 1;"/></g></g></g><rect class="legendtoggle" x="0" y="-11.9" width="68" height="23.8" style="fill: rgb(0, 0, 0); fill-opacity: 0;"/></g></g></g><rect class="scrollbar" rx="20" ry="3" width="0" height="0" style="fill: rgb(128, 139, 164); fill-opacity: 1;" x="0" y="0"/></g><g class="g-gtitle"><text class="gtitle" x="350" y="50" text-anchor="middle" dy="0.7em" style="font-family: 'Fira Sans'; font-size: 20px; fill: rgb(0, 0, 0); opacity: 1; font-weight: normal; white-space: pre;">Variations of meta (2048 x 2048)</text></g><g class="g-xtitle"><text class="xtitle" x="352.5" y="437.503125" text-anchor="middle" style="font-family: 'Fira Sans'; font-size: 19px; fill: rgb(0, 0, 0); opacity: 1; font-weight: normal; white-space: pre;">test_set</text></g><g class="g-ytitle"><text class="ytitle" transform="rotate(-90,37.496875,240)" x="37.496875" y="240" text-anchor="middle" style="font-family: 'Fira Sans'; font-size: 19px; fill: rgb(0, 0, 0); opacity: 1; font-weight: normal; white-space: pre;">final test acc</text></g></g></svg>