<svg class="main-svg" xmlns="http://www.w3.org/2000/svg" xmlns:xlink="http://www.w3.org/1999/xlink" width="400" height="800" style="" viewBox="0 0 400 800"><rect x="0" y="0" width="400" height="800" style="fill: rgb(255, 255, 255); fill-opacity: 1;"/><defs id="defs-8dc81f"><g class="clips"><clipPath id="clip8dc81fxyplot" class="plotclip"><rect width="245" height="154.66666666666666"/></clipPath><clipPath id="clip8dc81fx2y2plot" class="plotclip"><rect width="245" height="154.66666666666663"/></clipPath><clipPath id="clip8dc81fx3y3plot" class="plotclip"><rect width="245" height="154.66666666666663"/></clipPath><clipPath class="axesclip" id="clip8dc81fx"><rect x="100" y="0" width="245" height="800"/></clipPath><clipPath class="axesclip" id="clip8dc81fy"><rect x="0" y="525.3333333333334" width="400" height="154.66666666666666"/></clipPath><clipPath class="axesclip" id="clip8dc81fxy"><rect x="100" y="525.3333333333334" width="245" height="154.66666666666666"/></clipPath><clipPath class="axesclip" id="clip8dc81fy2"><rect x="0" y="312.6666666666667" width="400" height="154.66666666666663"/></clipPath><clipPath class="axesclip" id="clip8dc81fxy2"><rect x="100" y="312.6666666666667" width="245" height="154.66666666666663"/></clipPath><clipPath class="axesclip" id="clip8dc81fy3"><rect x="0" y="100" width="400" height="154.66666666666663"/></clipPath><clipPath class="axesclip" id="clip8dc81fxy3"><rect x="100" y="100" width="245" height="154.66666666666663"/></clipPath><clipPath class="axesclip" id="clip8dc81fx2"><rect x="100" y="0" width="245" height="800"/></clipPath><clipPath class="axesclip" id="clip8dc81fx2y"><rect x="100" y="525.3333333333334" width="245" height="154.66666666666666"/></clipPath><clipPath class="axesclip" id="clip8dc81fx2y2"><rect x="100" y="312.6666666666667" width="245" height="154.66666666666663"/></clipPath><clipPath class="axesclip" id="clip8dc81fx2y3"><rect x="100" y="100" width="245" height="154.66666666666663"/></clipPath><clipPath class="axesclip" id="clip8dc81fx3"><rect x="100" y="0" width="245" height="800"/></clipPath><clipPath class="axesclip" id="clip8dc81fx3y"><rect x="100" y="525.3333333333334" width="245" height="154.66666666666666"/></clipPath><clipPath class="axesclip" id="clip8dc81fx3y2"><rect x="100" y="312.6666666666667" width="245" height="154.66666666666663"/></clipPath><clipPath class="axesclip" id="clip8dc81fx3y3"><rect x="100" y="100" width="245" height="154.66666666666663"/></clipPath></g><g class="gradients"/><g class="patterns"/></defs><g class="bglayer"/><g class="layer-below"><g class="imagelayer"/><g class="shapelayer"/></g><g class="cartesianlayer"><g class="subplot xy"><g class="layer-subplot"><g class="shapelayer"/><g class="imagelayer"/></g><g class="gridlayer"><g class="x"/><g class="y"/></g><g class="zerolinelayer"/><path class="xlines-below"/><path class="ylines-below"/><g class="overlines-below"/><g class="xaxislayer-below"/><g class="yaxislayer-below"/><g class="overaxes-below"/><g class="plot" transform="translate(100,525.3333333333334)" clip-path="url(#clip8dc81fxyplot)"><g class="scatterlayer mlayer"><g class="trace scatter trace19a27d" style="stroke-miterlimit: 2; opacity: 0.7;"><g class="fills"/><g class="errorbars"/><g class="lines"><path class="js-line" d="M19.75,73.01L88.25,74.86L156.75,73.63L225.25,47.06" style="vector-effect: non-scaling-stroke; fill: none; stroke: rgb(255, 198, 196); stroke-opacity: 1; stroke-width: 4px; opacity: 1;"/></g><g class="points"><path class="point" transform="translate(19.75,73.01)" d="M6,0A6,6 0 1,1 0,-6A6,6 0 0,1 6,0Z" style="opacity: 1; stroke-width: 0px; fill: rgb(255, 198, 196); fill-opacity: 1;"/><path class="point" transform="translate(88.25,74.86)" d="M6,0A6,6 0 1,1 0,-6A6,6 0 0,1 6,0Z" style="opacity: 1; stroke-width: 0px; fill: rgb(255, 198, 196); fill-opacity: 1;"/><path class="point" transform="translate(156.75,73.63)" d="M6,0A6,6 0 1,1 0,-6A6,6 0 0,1 6,0Z" style="opacity: 1; stroke-width: 0px; fill: rgb(255, 198, 196); fill-opacity: 1;"/><path class="point" transform="translate(225.25,47.06)" d="M6,0A6,6 0 1,1 0,-6A6,6 0 0,1 6,0Z" style="opacity: 1; stroke-width: 0px; fill: rgb(255, 198, 196); fill-opacity: 1;"/></g><g class="text"/></g><g class="trace scatter trace755b86" style="stroke-miterlimit: 2; opacity: 0.7;"><g class="fills"/><g class="errorbars"/><g class="lines"><path class="js-line" d="M19.75,44.28L88.25,81.04L156.75,87.53L225.25,69.92" style="vector-effect: non-scaling-stroke; fill: none; stroke: rgb(244, 163, 168); stroke-opacity: 1; stroke-width: 4px; opacity: 1;"/></g><g class="points"><path class="point" transform="translate(19.75,44.28)" d="M6,0A6,6 0 1,1 0,-6A6,6 0 0,1 6,0Z" style="opacity: 1; stroke-width: 0px; fill: rgb(244, 163, 168); fill-opacity: 1;"/><path class="point" transform="translate(88.25,81.04)" d="M6,0A6,6 0 1,1 0,-6A6,6 0 0,1 6,0Z" style="opacity: 1; stroke-width: 0px; fill: rgb(244, 163, 168); fill-opacity: 1;"/><path class="point" transform="translate(156.75,87.53)" d="M6,0A6,6 0 1,1 0,-6A6,6 0 0,1 6,0Z" style="opacity: 1; stroke-width: 0px; fill: rgb(244, 163, 168); fill-opacity: 1;"/><path class="point" transform="translate(225.25,69.92)" d="M6,0A6,6 0 1,1 0,-6A6,6 0 0,1 6,0Z" style="opacity: 1; stroke-width: 0px; fill: rgb(244, 163, 168); fill-opacity: 1;"/></g><g class="text"/></g><g class="trace scatter trace22a0e9" style="stroke-miterlimit: 2; opacity: 0.7;"><g class="fills"/><g class="errorbars"/><g class="lines"><path class="js-line" d="M19.75,51.69L88.25,64.67L156.75,26.05L225.25,79.19" style="vector-effect: non-scaling-stroke; fill: none; stroke: rgb(227, 129, 145); stroke-opacity: 1; stroke-width: 4px; opacity: 1;"/></g><g class="points"><path class="point" transform="translate(19.75,51.69)" d="M6,0A6,6 0 1,1 0,-6A6,6 0 0,1 6,0Z" style="opacity: 1; stroke-width: 0px; fill: rgb(227, 129, 145); fill-opacity: 1;"/><path class="point" transform="translate(88.25,64.67)" d="M6,0A6,6 0 1,1 0,-6A6,6 0 0,1 6,0Z" style="opacity: 1; stroke-width: 0px; fill: rgb(227, 129, 145); fill-opacity: 1;"/><path class="point" transform="translate(156.75,26.05)" d="M6,0A6,6 0 1,1 0,-6A6,6 0 0,1 6,0Z" style="opacity: 1; stroke-width: 0px; fill: rgb(227, 129, 145); fill-opacity: 1;"/><path class="point" transform="translate(225.25,79.19)" d="M6,0A6,6 0 1,1 0,-6A6,6 0 0,1 6,0Z" style="opacity: 1; stroke-width: 0px; fill: rgb(227, 129, 145); fill-opacity: 1;"/></g><g class="text"/></g><g class="trace scatter trace9b52a6" style="stroke-miterlimit: 2; opacity: 0.7;"><g class="fills"/><g class="errorbars"/><g class="lines"><path class="js-line" d="M19.75,109.46L88.25,105.14L156.75,35.93L225.25,139.43" style="vector-effect: non-scaling-stroke; fill: none; stroke: rgb(204, 96, 125); stroke-opacity: 1; stroke-width: 4px; opacity: 1;"/></g><g class="points"><path class="point" transform="translate(19.75,109.46)" d="M6,0A6,6 0 1,1 0,-6A6,6 0 0,1 6,0Z" style="opacity: 1; stroke-width: 0px; fill: rgb(204, 96, 125); fill-opacity: 1;"/><path class="point" transform="translate(88.25,105.14)" d="M6,0A6,6 0 1,1 0,-6A6,6 0 0,1 6,0Z" style="opacity: 1; stroke-width: 0px; fill: rgb(204, 96, 125); fill-opacity: 1;"/><path class="point" transform="translate(156.75,35.93)" d="M6,0A6,6 0 1,1 0,-6A6,6 0 0,1 6,0Z" style="opacity: 1; stroke-width: 0px; fill: rgb(204, 96, 125); fill-opacity: 1;"/><path class="point" transform="translate(225.25,139.43)" d="M6,0A6,6 0 1,1 0,-6A6,6 0 0,1 6,0Z" style="opacity: 1; stroke-width: 0px; fill: rgb(204, 96, 125); fill-opacity: 1;"/></g><g class="text"/></g><g class="trace scatter trace072eaa" style="stroke-miterlimit: 2; opacity: 0.7;"><g class="fills"/><g class="errorbars"/><g class="lines"><path class="js-line" d="M19.75,67.14L88.25,55.4L156.75,110.7L225.25,60.34" style="vector-effect: non-scaling-stroke; fill: none; stroke: rgb(173, 70, 108); stroke-opacity: 1; stroke-width: 4px; opacity: 1;"/></g><g class="points"><path class="point" transform="translate(19.75,67.14)" d="M6,0A6,6 0 1,1 0,-6A6,6 0 0,1 6,0Z" style="opacity: 1; stroke-width: 0px; fill: rgb(173, 70, 108); fill-opacity: 1;"/><path class="point" transform="translate(88.25,55.4)" d="M6,0A6,6 0 1,1 0,-6A6,6 0 0,1 6,0Z" style="opacity: 1; stroke-width: 0px; fill: rgb(173, 70, 108); fill-opacity: 1;"/><path class="point" transform="translate(156.75,110.7)" d="M6,0A6,6 0 1,1 0,-6A6,6 0 0,1 6,0Z" style="opacity: 1; stroke-width: 0px; fill: rgb(173, 70, 108); fill-opacity: 1;"/><path class="point" transform="translate(225.25,60.34)" d="M6,0A6,6 0 1,1 0,-6A6,6 0 0,1 6,0Z" style="opacity: 1; stroke-width: 0px; fill: rgb(173, 70, 108); fill-opacity: 1;"/></g><g class="text"/></g><g class="trace scatter tracebcba72" style="stroke-miterlimit: 2; opacity: 0.7;"><g class="fills"/><g class="errorbars"/><g class="lines"><path class="js-line" d="M19.75,64.36L88.25,65.9L156.75,23.27L225.25,96.49" style="vector-effect: non-scaling-stroke; fill: none; stroke: rgb(139, 48, 88); stroke-opacity: 1; stroke-width: 4px; opacity: 1;"/></g><g class="points"><path class="point" transform="translate(19.75,64.36)" d="M6,0A6,6 0 1,1 0,-6A6,6 0 0,1 6,0Z" style="opacity: 1; stroke-width: 0px; fill: rgb(139, 48, 88); fill-opacity: 1;"/><path class="point" transform="translate(88.25,65.9)" d="M6,0A6,6 0 1,1 0,-6A6,6 0 0,1 6,0Z" style="opacity: 1; stroke-width: 0px; fill: rgb(139, 48, 88); fill-opacity: 1;"/><path class="point" transform="translate(156.75,23.27)" d="M6,0A6,6 0 1,1 0,-6A6,6 0 0,1 6,0Z" style="opacity: 1; stroke-width: 0px; fill: rgb(139, 48, 88); fill-opacity: 1;"/><path class="point" transform="translate(225.25,96.49)" d="M6,0A6,6 0 1,1 0,-6A6,6 0 0,1 6,0Z" style="opacity: 1; stroke-width: 0px; fill: rgb(139, 48, 88); fill-opacity: 1;"/></g><g class="text"/></g><g class="trace scatter trace1d9612" style="stroke-miterlimit: 2; opacity: 0.7;"><g class="fills"/><g class="errorbars"/><g class="lines"><path class="js-line" d="M19.75,91.85L88.25,76.41L156.75,62.19L225.25,109.46" style="vector-effect: non-scaling-stroke; fill: none; stroke: rgb(103, 32, 68); stroke-opacity: 1; stroke-width: 4px; opacity: 1;"/></g><g class="points"><path class="point" transform="translate(19.75,91.85)" d="M6,0A6,6 0 1,1 0,-6A6,6 0 0,1 6,0Z" style="opacity: 1; stroke-width: 0px; fill: rgb(103, 32, 68); fill-opacity: 1;"/><path class="point" transform="translate(88.25,76.41)" d="M6,0A6,6 0 1,1 0,-6A6,6 0 0,1 6,0Z" style="opacity: 1; stroke-width: 0px; fill: rgb(103, 32, 68); fill-opacity: 1;"/><path class="point" transform="translate(156.75,62.19)" d="M6,0A6,6 0 1,1 0,-6A6,6 0 0,1 6,0Z" style="opacity: 1; stroke-width: 0px; fill: rgb(103, 32, 68); fill-opacity: 1;"/><path class="point" transform="translate(225.25,109.46)" d="M6,0A6,6 0 1,1 0,-6A6,6 0 0,1 6,0Z" style="opacity: 1; stroke-width: 0px; fill: rgb(103, 32, 68); fill-opacity: 1;"/></g><g class="text"/></g><g class="trace scatter trace571d84" style="stroke-miterlimit: 2; opacity: 0.7;"><g class="fills"/><g class="errorbars"/><g class="lines"><path class="js-line" d="M19.75,67.45L88.25,91.24L156.75,35.93L225.25,70.85" style="vector-effect: non-scaling-stroke; fill: none; stroke: rgb(73, 24, 45); stroke-opacity: 1; stroke-width: 4px; opacity: 1;"/></g><g class="points"><path class="point" transform="translate(19.75,67.45)" d="M6,0A6,6 0 1,1 0,-6A6,6 0 0,1 6,0Z" style="opacity: 1; stroke-width: 0px; fill: rgb(73, 24, 45); fill-opacity: 1;"/><path class="point" transform="translate(88.25,91.24)" d="M6,0A6,6 0 1,1 0,-6A6,6 0 0,1 6,0Z" style="opacity: 1; stroke-width: 0px; fill: rgb(73, 24, 45); fill-opacity: 1;"/><path class="point" transform="translate(156.75,35.93)" d="M6,0A6,6 0 1,1 0,-6A6,6 0 0,1 6,0Z" style="opacity: 1; stroke-width: 0px; fill: rgb(73, 24, 45); fill-opacity: 1;"/><path class="point" transform="translate(225.25,70.85)" d="M6,0A6,6 0 1,1 0,-6A6,6 0 0,1 6,0Z" style="opacity: 1; stroke-width: 0px; fill: rgb(73, 24, 45); fill-opacity: 1;"/></g><g class="text"/></g></g></g><g class="overplot"/><path class="xlines-above crisp" d="M98,681H345" style="fill: none; stroke-width: 2px; stroke: rgb(0, 0, 0); stroke-opacity: 1;"/><path class="ylines-above crisp" d="M99,525.3333333333334V680" style="fill: none; stroke-width: 2px; stroke: rgb(0, 0, 0); stroke-opacity: 1;"/><g class="overlines-above"/><g class="xaxislayer-above"><path class="xtick ticks crisp" d="M0,682v5" transform="translate(119.75,0)" style="stroke: rgb(68, 68, 68); stroke-opacity: 1; stroke-width: 2px;"/><path class="xtick ticks crisp" d="M0,682v5" transform="translate(188.25,0)" style="stroke: rgb(68, 68, 68); stroke-opacity: 1; stroke-width: 2px;"/><path class="xtick ticks crisp" d="M0,682v5" transform="translate(256.75,0)" style="stroke: rgb(68, 68, 68); stroke-opacity: 1; stroke-width: 2px;"/><path class="xtick ticks crisp" d="M0,682v5" transform="translate(325.25,0)" style="stroke: rgb(68, 68, 68); stroke-opacity: 1; stroke-width: 2px;"/><g class="xtick"><text text-anchor="middle" x="0" y="711" transform="translate(119.75,0)" style="font-family: FreeSans; font-size: 20px; fill: rgb(0, 0, 0); fill-opacity: 1; white-space: pre; opacity: 1;">512</text></g><g class="xtick"><text text-anchor="middle" x="0" y="711" transform="translate(188.25,0)" style="font-family: FreeSans; font-size: 20px; fill: rgb(0, 0, 0); fill-opacity: 1; white-space: pre; opacity: 1;">1024</text></g><g class="xtick"><text text-anchor="middle" x="0" y="711" transform="translate(256.75,0)" style="font-family: FreeSans; font-size: 20px; fill: rgb(0, 0, 0); fill-opacity: 1; white-space: pre; opacity: 1;">2048</text></g><g class="xtick"><text text-anchor="middle" x="0" y="711" transform="translate(325.25,0)" style="font-family: FreeSans; font-size: 20px; fill: rgb(0, 0, 0); fill-opacity: 1; white-space: pre; opacity: 1;">4096</text></g></g><g class="yaxislayer-above"><path class="ytick ticks crisp" d="M98,0h-5" transform="translate(0,655.4933333333333)" style="stroke: rgb(68, 68, 68); stroke-opacity: 1; stroke-width: 2px;"/><path class="ytick ticks crisp" d="M98,0h-5" transform="translate(0,611.0133333333333)" style="stroke: rgb(68, 68, 68); stroke-opacity: 1; stroke-width: 2px;"/><path class="ytick ticks crisp" d="M98,0h-5" transform="translate(0,566.5233333333333)" style="stroke: rgb(68, 68, 68); stroke-opacity: 1; stroke-width: 2px;"/><g class="ytick"><text text-anchor="end" x="89" y="7" transform="translate(0,655.4933333333333)" style="font-family: FreeSans; font-size: 20px; fill: rgb(0, 0, 0); fill-opacity: 1; white-space: pre; opacity: 1;">0.48</text></g><g class="ytick"><text text-anchor="end" x="89" y="7" style="font-family: FreeSans; font-size: 20px; fill: rgb(0, 0, 0); fill-opacity: 1; white-space: pre; opacity: 1;" transform="translate(0,611.0133333333333)">0.49</text></g><g class="ytick"><text text-anchor="end" x="89" y="7" style="font-family: FreeSans; font-size: 20px; fill: rgb(0, 0, 0); fill-opacity: 1; white-space: pre; opacity: 1;" transform="translate(0,566.5233333333333)">0.5</text></g></g><g class="overaxes-above"/></g><g class="subplot x2y2"><g class="layer-subplot"><g class="shapelayer"/><g class="imagelayer"/></g><g class="gridlayer"><g class="x2"/><g class="y2"/></g><g class="zerolinelayer"/><path class="xlines-below"/><path class="ylines-below"/><g class="overlines-below"/><g class="xaxislayer-below"/><g class="yaxislayer-below"/><g class="overaxes-below"/><g class="plot" transform="translate(100,312.6666666666667)" clip-path="url(#clip8dc81fx2y2plot)"><g class="scatterlayer mlayer"><g class="trace scatter trace961cf3" style="stroke-miterlimit: 2; opacity: 0.7;"><g class="fills"/><g class="errorbars"/><g class="lines"><path class="js-line" d="M19.75,104.83L88.25,102.36L156.75,85.06L225.25,123.99" style="vector-effect: non-scaling-stroke; fill: none; stroke: rgb(255, 198, 196); stroke-opacity: 1; stroke-width: 4px; opacity: 1;"/></g><g class="points"><path class="point" transform="translate(19.75,104.83)" d="M6,0A6,6 0 1,1 0,-6A6,6 0 0,1 6,0Z" style="opacity: 1; stroke-width: 0px; fill: rgb(255, 198, 196); fill-opacity: 1;"/><path class="point" transform="translate(88.25,102.36)" d="M6,0A6,6 0 1,1 0,-6A6,6 0 0,1 6,0Z" style="opacity: 1; stroke-width: 0px; fill: rgb(255, 198, 196); fill-opacity: 1;"/><path class="point" transform="translate(156.75,85.06)" d="M6,0A6,6 0 1,1 0,-6A6,6 0 0,1 6,0Z" style="opacity: 1; stroke-width: 0px; fill: rgb(255, 198, 196); fill-opacity: 1;"/><path class="point" transform="translate(225.25,123.99)" d="M6,0A6,6 0 1,1 0,-6A6,6 0 0,1 6,0Z" style="opacity: 1; stroke-width: 0px; fill: rgb(255, 198, 196); fill-opacity: 1;"/></g><g class="text"/></g><g class="trace scatter trace4c3868" style="stroke-miterlimit: 2; opacity: 0.7;"><g class="fills"/><g class="errorbars"/><g class="lines"><path class="js-line" d="M19.75,70.85L88.25,122.75L156.75,99.27L225.25,101.74" style="vector-effect: non-scaling-stroke; fill: none; stroke: rgb(244, 163, 168); stroke-opacity: 1; stroke-width: 4px; opacity: 1;"/></g><g class="points"><path class="point" transform="translate(19.75,70.85)" d="M6,0A6,6 0 1,1 0,-6A6,6 0 0,1 6,0Z" style="opacity: 1; stroke-width: 0px; fill: rgb(244, 163, 168); fill-opacity: 1;"/><path class="point" transform="translate(88.25,122.75)" d="M6,0A6,6 0 1,1 0,-6A6,6 0 0,1 6,0Z" style="opacity: 1; stroke-width: 0px; fill: rgb(244, 163, 168); fill-opacity: 1;"/><path class="point" transform="translate(156.75,99.27)" d="M6,0A6,6 0 1,1 0,-6A6,6 0 0,1 6,0Z" style="opacity: 1; stroke-width: 0px; fill: rgb(244, 163, 168); fill-opacity: 1;"/><path class="point" transform="translate(225.25,101.74)" d="M6,0A6,6 0 1,1 0,-6A6,6 0 0,1 6,0Z" style="opacity: 1; stroke-width: 0px; fill: rgb(244, 163, 168); fill-opacity: 1;"/></g><g class="text"/></g><g class="trace scatter tracef8f5c7" style="stroke-miterlimit: 2; opacity: 0.7;"><g class="fills"/><g class="errorbars"/><g class="lines"><path class="js-line" d="M19.75,44.89L88.25,61.58L156.75,73.93L225.25,87.53" style="vector-effect: non-scaling-stroke; fill: none; stroke: rgb(227, 129, 145); stroke-opacity: 1; stroke-width: 4px; opacity: 1;"/></g><g class="points"><path class="point" transform="translate(19.75,44.89)" d="M6,0A6,6 0 1,1 0,-6A6,6 0 0,1 6,0Z" style="opacity: 1; stroke-width: 0px; fill: rgb(227, 129, 145); fill-opacity: 1;"/><path class="point" transform="translate(88.25,61.58)" d="M6,0A6,6 0 1,1 0,-6A6,6 0 0,1 6,0Z" style="opacity: 1; stroke-width: 0px; fill: rgb(227, 129, 145); fill-opacity: 1;"/><path class="point" transform="translate(156.75,73.93)" d="M6,0A6,6 0 1,1 0,-6A6,6 0 0,1 6,0Z" style="opacity: 1; stroke-width: 0px; fill: rgb(227, 129, 145); fill-opacity: 1;"/><path class="point" transform="translate(225.25,87.53)" d="M6,0A6,6 0 1,1 0,-6A6,6 0 0,1 6,0Z" style="opacity: 1; stroke-width: 0px; fill: rgb(227, 129, 145); fill-opacity: 1;"/></g><g class="text"/></g><g class="trace scatter traceae25ac" style="stroke-miterlimit: 2; opacity: 0.7;"><g class="fills"/><g class="errorbars"/><g class="lines"><path class="js-line" d="M19.75,90L88.25,103.59L156.75,59.1L225.25,91.24" style="vector-effect: non-scaling-stroke; fill: none; stroke: rgb(204, 96, 125); stroke-opacity: 1; stroke-width: 4px; opacity: 1;"/></g><g class="points"><path class="point" transform="translate(19.75,90)" d="M6,0A6,6 0 1,1 0,-6A6,6 0 0,1 6,0Z" style="opacity: 1; stroke-width: 0px; fill: rgb(204, 96, 125); fill-opacity: 1;"/><path class="point" transform="translate(88.25,103.59)" d="M6,0A6,6 0 1,1 0,-6A6,6 0 0,1 6,0Z" style="opacity: 1; stroke-width: 0px; fill: rgb(204, 96, 125); fill-opacity: 1;"/><path class="point" transform="translate(156.75,59.1)" d="M6,0A6,6 0 1,1 0,-6A6,6 0 0,1 6,0Z" style="opacity: 1; stroke-width: 0px; fill: rgb(204, 96, 125); fill-opacity: 1;"/><path class="point" transform="translate(225.25,91.24)" d="M6,0A6,6 0 1,1 0,-6A6,6 0 0,1 6,0Z" style="opacity: 1; stroke-width: 0px; fill: rgb(204, 96, 125); fill-opacity: 1;"/></g><g class="text"/></g><g class="trace scatter traceee8279" style="stroke-miterlimit: 2; opacity: 0.7;"><g class="fills"/><g class="errorbars"/><g class="lines"><path class="js-line" d="M19.75,94.33L88.25,119.66L156.75,60.34L225.25,91.85" style="vector-effect: non-scaling-stroke; fill: none; stroke: rgb(173, 70, 108); stroke-opacity: 1; stroke-width: 4px; opacity: 1;"/></g><g class="points"><path class="point" transform="translate(19.75,94.33)" d="M6,0A6,6 0 1,1 0,-6A6,6 0 0,1 6,0Z" style="opacity: 1; stroke-width: 0px; fill: rgb(173, 70, 108); fill-opacity: 1;"/><path class="point" transform="translate(88.25,119.66)" d="M6,0A6,6 0 1,1 0,-6A6,6 0 0,1 6,0Z" style="opacity: 1; stroke-width: 0px; fill: rgb(173, 70, 108); fill-opacity: 1;"/><path class="point" transform="translate(156.75,60.34)" d="M6,0A6,6 0 1,1 0,-6A6,6 0 0,1 6,0Z" style="opacity: 1; stroke-width: 0px; fill: rgb(173, 70, 108); fill-opacity: 1;"/><path class="point" transform="translate(225.25,91.85)" d="M6,0A6,6 0 1,1 0,-6A6,6 0 0,1 6,0Z" style="opacity: 1; stroke-width: 0px; fill: rgb(173, 70, 108); fill-opacity: 1;"/></g><g class="text"/></g><g class="trace scatter trace4e40fd" style="stroke-miterlimit: 2; opacity: 0.7;"><g class="fills"/><g class="errorbars"/><g class="lines"><path class="js-line" d="M19.75,37.48L88.25,65.9L156.75,52.93L225.25,103.59" style="vector-effect: non-scaling-stroke; fill: none; stroke: rgb(139, 48, 88); stroke-opacity: 1; stroke-width: 4px; opacity: 1;"/></g><g class="points"><path class="point" transform="translate(19.75,37.48)" d="M6,0A6,6 0 1,1 0,-6A6,6 0 0,1 6,0Z" style="opacity: 1; stroke-width: 0px; fill: rgb(139, 48, 88); fill-opacity: 1;"/><path class="point" transform="translate(88.25,65.9)" d="M6,0A6,6 0 1,1 0,-6A6,6 0 0,1 6,0Z" style="opacity: 1; stroke-width: 0px; fill: rgb(139, 48, 88); fill-opacity: 1;"/><path class="point" transform="translate(156.75,52.93)" d="M6,0A6,6 0 1,1 0,-6A6,6 0 0,1 6,0Z" style="opacity: 1; stroke-width: 0px; fill: rgb(139, 48, 88); fill-opacity: 1;"/><path class="point" transform="translate(225.25,103.59)" d="M6,0A6,6 0 1,1 0,-6A6,6 0 0,1 6,0Z" style="opacity: 1; stroke-width: 0px; fill: rgb(139, 48, 88); fill-opacity: 1;"/></g><g class="text"/></g><g class="trace scatter trace127d11" style="stroke-miterlimit: 2; opacity: 0.7;"><g class="fills"/><g class="errorbars"/><g class="lines"><path class="js-line" d="M19.75,66.52L88.25,75.17L156.75,139.43L225.25,40.57" style="vector-effect: non-scaling-stroke; fill: none; stroke: rgb(103, 32, 68); stroke-opacity: 1; stroke-width: 4px; opacity: 1;"/></g><g class="points"><path class="point" transform="translate(19.75,66.52)" d="M6,0A6,6 0 1,1 0,-6A6,6 0 0,1 6,0Z" style="opacity: 1; stroke-width: 0px; fill: rgb(103, 32, 68); fill-opacity: 1;"/><path class="point" transform="translate(88.25,75.17)" d="M6,0A6,6 0 1,1 0,-6A6,6 0 0,1 6,0Z" style="opacity: 1; stroke-width: 0px; fill: rgb(103, 32, 68); fill-opacity: 1;"/><path class="point" transform="translate(156.75,139.43)" d="M6,0A6,6 0 1,1 0,-6A6,6 0 0,1 6,0Z" style="opacity: 1; stroke-width: 0px; fill: rgb(103, 32, 68); fill-opacity: 1;"/><path class="point" transform="translate(225.25,40.57)" d="M6,0A6,6 0 1,1 0,-6A6,6 0 0,1 6,0Z" style="opacity: 1; stroke-width: 0px; fill: rgb(103, 32, 68); fill-opacity: 1;"/></g><g class="text"/></g><g class="trace scatter trace9f42eb" style="stroke-miterlimit: 2; opacity: 0.7;"><g class="fills"/><g class="errorbars"/><g class="lines"><path class="js-line" d="M19.75,52.31L88.25,88.76L156.75,122.13L225.25,35.01" style="vector-effect: non-scaling-stroke; fill: none; stroke: rgb(73, 24, 45); stroke-opacity: 1; stroke-width: 4px; opacity: 1;"/></g><g class="points"><path class="point" transform="translate(19.75,52.31)" d="M6,0A6,6 0 1,1 0,-6A6,6 0 0,1 6,0Z" style="opacity: 1; stroke-width: 0px; fill: rgb(73, 24, 45); fill-opacity: 1;"/><path class="point" transform="translate(88.25,88.76)" d="M6,0A6,6 0 1,1 0,-6A6,6 0 0,1 6,0Z" style="opacity: 1; stroke-width: 0px; fill: rgb(73, 24, 45); fill-opacity: 1;"/><path class="point" transform="translate(156.75,122.13)" d="M6,0A6,6 0 1,1 0,-6A6,6 0 0,1 6,0Z" style="opacity: 1; stroke-width: 0px; fill: rgb(73, 24, 45); fill-opacity: 1;"/><path class="point" transform="translate(225.25,35.01)" d="M6,0A6,6 0 1,1 0,-6A6,6 0 0,1 6,0Z" style="opacity: 1; stroke-width: 0px; fill: rgb(73, 24, 45); fill-opacity: 1;"/></g><g class="text"/></g></g></g><g class="overplot"/><path class="xlines-above crisp" d="M98,468.3333333333333H345" style="fill: none; stroke-width: 2px; stroke: rgb(0, 0, 0); stroke-opacity: 1;"/><path class="ylines-above crisp" d="M99,312.6666666666667V467.3333333333333" style="fill: none; stroke-width: 2px; stroke: rgb(0, 0, 0); stroke-opacity: 1;"/><g class="overlines-above"/><g class="xaxislayer-above"><path class="x2tick ticks crisp" d="M0,469.3333333333333v5" transform="translate(119.75,0)" style="stroke: rgb(68, 68, 68); stroke-opacity: 1; stroke-width: 2px;"/><path class="x2tick ticks crisp" d="M0,469.3333333333333v5" transform="translate(188.25,0)" style="stroke: rgb(68, 68, 68); stroke-opacity: 1; stroke-width: 2px;"/><path class="x2tick ticks crisp" d="M0,469.3333333333333v5" transform="translate(256.75,0)" style="stroke: rgb(68, 68, 68); stroke-opacity: 1; stroke-width: 2px;"/><path class="x2tick ticks crisp" d="M0,469.3333333333333v5" transform="translate(325.25,0)" style="stroke: rgb(68, 68, 68); stroke-opacity: 1; stroke-width: 2px;"/><g class="x2tick"><text text-anchor="middle" x="0" y="498.3333333333333" transform="translate(119.75,0)" style="font-family: FreeSans; font-size: 20px; fill: rgb(0, 0, 0); fill-opacity: 1; white-space: pre; opacity: 1;">512</text></g><g class="x2tick"><text text-anchor="middle" x="0" y="498.3333333333333" transform="translate(188.25,0)" style="font-family: FreeSans; font-size: 20px; fill: rgb(0, 0, 0); fill-opacity: 1; white-space: pre; opacity: 1;">1024</text></g><g class="x2tick"><text text-anchor="middle" x="0" y="498.3333333333333" transform="translate(256.75,0)" style="font-family: FreeSans; font-size: 20px; fill: rgb(0, 0, 0); fill-opacity: 1; white-space: pre; opacity: 1;">2048</text></g><g class="x2tick"><text text-anchor="middle" x="0" y="498.3333333333333" transform="translate(325.25,0)" style="font-family: FreeSans; font-size: 20px; fill: rgb(0, 0, 0); fill-opacity: 1; white-space: pre; opacity: 1;">4096</text></g></g><g class="yaxislayer-above"><path class="y2tick ticks crisp" d="M98,0h-5" transform="translate(0,442.8266666666667)" style="stroke: rgb(68, 68, 68); stroke-opacity: 1; stroke-width: 2px;"/><path class="y2tick ticks crisp" d="M98,0h-5" transform="translate(0,398.3466666666667)" style="stroke: rgb(68, 68, 68); stroke-opacity: 1; stroke-width: 2px;"/><path class="y2tick ticks crisp" d="M98,0h-5" transform="translate(0,353.8566666666667)" style="stroke: rgb(68, 68, 68); stroke-opacity: 1; stroke-width: 2px;"/><g class="y2tick"><text text-anchor="end" x="89" y="7" transform="translate(0,442.8266666666667)" style="font-family: FreeSans; font-size: 20px; fill: rgb(0, 0, 0); fill-opacity: 1; white-space: pre; opacity: 1;">0.48</text></g><g class="y2tick"><text text-anchor="end" x="89" y="7" style="font-family: FreeSans; font-size: 20px; fill: rgb(0, 0, 0); fill-opacity: 1; white-space: pre; opacity: 1;" transform="translate(0,398.3466666666667)">0.49</text></g><g class="y2tick"><text text-anchor="end" x="89" y="7" style="font-family: FreeSans; font-size: 20px; fill: rgb(0, 0, 0); fill-opacity: 1; white-space: pre; opacity: 1;" transform="translate(0,353.8566666666667)">0.5</text></g></g><g class="overaxes-above"/></g><g class="subplot x3y3"><g class="layer-subplot"><g class="shapelayer"/><g class="imagelayer"/></g><g class="gridlayer"><g class="x3"/><g class="y3"/></g><g class="zerolinelayer"/><path class="xlines-below"/><path class="ylines-below"/><g class="overlines-below"/><g class="xaxislayer-below"/><g class="yaxislayer-below"/><g class="overaxes-below"/><g class="plot" transform="translate(100,100)" clip-path="url(#clip8dc81fx3y3plot)"><g class="scatterlayer mlayer"><g class="trace scatter traced2d664" style="stroke-miterlimit: 2; opacity: 0.7;"><g class="fills"/><g class="errorbars"/><g class="lines"><path class="js-line" d="M19.75,84.44L88.25,79.5L156.75,51.07L225.25,93.09" style="vector-effect: non-scaling-stroke; fill: none; stroke: rgb(255, 198, 196); stroke-opacity: 1; stroke-width: 4px; opacity: 1;"/></g><g class="points"><path class="point" transform="translate(19.75,84.44)" d="M6,0A6,6 0 1,1 0,-6A6,6 0 0,1 6,0Z" style="opacity: 1; stroke-width: 0px; fill: rgb(255, 198, 196); fill-opacity: 1;"/><path class="point" transform="translate(88.25,79.5)" d="M6,0A6,6 0 1,1 0,-6A6,6 0 0,1 6,0Z" style="opacity: 1; stroke-width: 0px; fill: rgb(255, 198, 196); fill-opacity: 1;"/><path class="point" transform="translate(156.75,51.07)" d="M6,0A6,6 0 1,1 0,-6A6,6 0 0,1 6,0Z" style="opacity: 1; stroke-width: 0px; fill: rgb(255, 198, 196); fill-opacity: 1;"/><path class="point" transform="translate(225.25,93.09)" d="M6,0A6,6 0 1,1 0,-6A6,6 0 0,1 6,0Z" style="opacity: 1; stroke-width: 0px; fill: rgb(255, 198, 196); fill-opacity: 1;"/></g><g class="text"/></g><g class="trace scatter trace7113ff" style="stroke-miterlimit: 2; opacity: 0.7;"><g class="fills"/><g class="errorbars"/><g class="lines"><path class="js-line" d="M19.75,44.89L88.25,70.85L156.75,89.38L225.25,57.25" style="vector-effect: non-scaling-stroke; fill: none; stroke: rgb(244, 163, 168); stroke-opacity: 1; stroke-width: 4px; opacity: 1;"/></g><g class="points"><path class="point" transform="translate(19.75,44.89)" d="M6,0A6,6 0 1,1 0,-6A6,6 0 0,1 6,0Z" style="opacity: 1; stroke-width: 0px; fill: rgb(244, 163, 168); fill-opacity: 1;"/><path class="point" transform="translate(88.25,70.85)" d="M6,0A6,6 0 1,1 0,-6A6,6 0 0,1 6,0Z" style="opacity: 1; stroke-width: 0px; fill: rgb(244, 163, 168); fill-opacity: 1;"/><path class="point" transform="translate(156.75,89.38)" d="M6,0A6,6 0 1,1 0,-6A6,6 0 0,1 6,0Z" style="opacity: 1; stroke-width: 0px; fill: rgb(244, 163, 168); fill-opacity: 1;"/><path class="point" transform="translate(225.25,57.25)" d="M6,0A6,6 0 1,1 0,-6A6,6 0 0,1 6,0Z" style="opacity: 1; stroke-width: 0px; fill: rgb(244, 163, 168); fill-opacity: 1;"/></g><g class="text"/></g><g class="trace scatter trace970088" style="stroke-miterlimit: 2; opacity: 0.7;"><g class="fills"/><g class="errorbars"/><g class="lines"><path class="js-line" d="M19.75,53.54L88.25,90.62L156.75,39.95L225.25,72.08" style="vector-effect: non-scaling-stroke; fill: none; stroke: rgb(227, 129, 145); stroke-opacity: 1; stroke-width: 4px; opacity: 1;"/></g><g class="points"><path class="point" transform="translate(19.75,53.54)" d="M6,0A6,6 0 1,1 0,-6A6,6 0 0,1 6,0Z" style="opacity: 1; stroke-width: 0px; fill: rgb(227, 129, 145); fill-opacity: 1;"/><path class="point" transform="translate(88.25,90.62)" d="M6,0A6,6 0 1,1 0,-6A6,6 0 0,1 6,0Z" style="opacity: 1; stroke-width: 0px; fill: rgb(227, 129, 145); fill-opacity: 1;"/><path class="point" transform="translate(156.75,39.95)" d="M6,0A6,6 0 1,1 0,-6A6,6 0 0,1 6,0Z" style="opacity: 1; stroke-width: 0px; fill: rgb(227, 129, 145); fill-opacity: 1;"/><path class="point" transform="translate(225.25,72.08)" d="M6,0A6,6 0 1,1 0,-6A6,6 0 0,1 6,0Z" style="opacity: 1; stroke-width: 0px; fill: rgb(227, 129, 145); fill-opacity: 1;"/></g><g class="text"/></g><g class="trace scatter trace4611ee" style="stroke-miterlimit: 2; opacity: 0.7;"><g class="fills"/><g class="errorbars"/><g class="lines"><path class="js-line" d="M19.75,65.9L88.25,77.02L156.75,28.83L225.25,80.73" style="vector-effect: non-scaling-stroke; fill: none; stroke: rgb(204, 96, 125); stroke-opacity: 1; stroke-width: 4px; opacity: 1;"/></g><g class="points"><path class="point" transform="translate(19.75,65.9)" d="M6,0A6,6 0 1,1 0,-6A6,6 0 0,1 6,0Z" style="opacity: 1; stroke-width: 0px; fill: rgb(204, 96, 125); fill-opacity: 1;"/><path class="point" transform="translate(88.25,77.02)" d="M6,0A6,6 0 1,1 0,-6A6,6 0 0,1 6,0Z" style="opacity: 1; stroke-width: 0px; fill: rgb(204, 96, 125); fill-opacity: 1;"/><path class="point" transform="translate(156.75,28.83)" d="M6,0A6,6 0 1,1 0,-6A6,6 0 0,1 6,0Z" style="opacity: 1; stroke-width: 0px; fill: rgb(204, 96, 125); fill-opacity: 1;"/><path class="point" transform="translate(225.25,80.73)" d="M6,0A6,6 0 1,1 0,-6A6,6 0 0,1 6,0Z" style="opacity: 1; stroke-width: 0px; fill: rgb(204, 96, 125); fill-opacity: 1;"/></g><g class="text"/></g><g class="trace scatter traced5e6c6" style="stroke-miterlimit: 2; opacity: 0.7;"><g class="fills"/><g class="errorbars"/><g class="lines"><path class="js-line" d="M19.75,33.77L88.25,70.85L156.75,65.9L225.25,70.85" style="vector-effect: non-scaling-stroke; fill: none; stroke: rgb(173, 70, 108); stroke-opacity: 1; stroke-width: 4px; opacity: 1;"/></g><g class="points"><path class="point" transform="translate(19.75,33.77)" d="M6,0A6,6 0 1,1 0,-6A6,6 0 0,1 6,0Z" style="opacity: 1; stroke-width: 0px; fill: rgb(173, 70, 108); fill-opacity: 1;"/><path class="point" transform="translate(88.25,70.85)" d="M6,0A6,6 0 1,1 0,-6A6,6 0 0,1 6,0Z" style="opacity: 1; stroke-width: 0px; fill: rgb(173, 70, 108); fill-opacity: 1;"/><path class="point" transform="translate(156.75,65.9)" d="M6,0A6,6 0 1,1 0,-6A6,6 0 0,1 6,0Z" style="opacity: 1; stroke-width: 0px; fill: rgb(173, 70, 108); fill-opacity: 1;"/><path class="point" transform="translate(225.25,70.85)" d="M6,0A6,6 0 1,1 0,-6A6,6 0 0,1 6,0Z" style="opacity: 1; stroke-width: 0px; fill: rgb(173, 70, 108); fill-opacity: 1;"/></g><g class="text"/></g><g class="trace scatter trace80b20f" style="stroke-miterlimit: 2; opacity: 0.7;"><g class="fills"/><g class="errorbars"/><g class="lines"><path class="js-line" d="M19.75,33.77L88.25,39.95L156.75,53.54L225.25,116.57" style="vector-effect: non-scaling-stroke; fill: none; stroke: rgb(139, 48, 88); stroke-opacity: 1; stroke-width: 4px; opacity: 1;"/></g><g class="points"><path class="point" transform="translate(19.75,33.77)" d="M6,0A6,6 0 1,1 0,-6A6,6 0 0,1 6,0Z" style="opacity: 1; stroke-width: 0px; fill: rgb(139, 48, 88); fill-opacity: 1;"/><path class="point" transform="translate(88.25,39.95)" d="M6,0A6,6 0 1,1 0,-6A6,6 0 0,1 6,0Z" style="opacity: 1; stroke-width: 0px; fill: rgb(139, 48, 88); fill-opacity: 1;"/><path class="point" transform="translate(156.75,53.54)" d="M6,0A6,6 0 1,1 0,-6A6,6 0 0,1 6,0Z" style="opacity: 1; stroke-width: 0px; fill: rgb(139, 48, 88); fill-opacity: 1;"/><path class="point" transform="translate(225.25,116.57)" d="M6,0A6,6 0 1,1 0,-6A6,6 0 0,1 6,0Z" style="opacity: 1; stroke-width: 0px; fill: rgb(139, 48, 88); fill-opacity: 1;"/></g><g class="text"/></g><g class="trace scatter trace981b4d" style="stroke-miterlimit: 2; opacity: 0.7;"><g class="fills"/><g class="errorbars"/><g class="lines"><path class="js-line" d="M19.75,96.8L88.25,78.26L156.75,22.65L225.25,101.74" style="vector-effect: non-scaling-stroke; fill: none; stroke: rgb(103, 32, 68); stroke-opacity: 1; stroke-width: 4px; opacity: 1;"/></g><g class="points"><path class="point" transform="translate(19.75,96.8)" d="M6,0A6,6 0 1,1 0,-6A6,6 0 0,1 6,0Z" style="opacity: 1; stroke-width: 0px; fill: rgb(103, 32, 68); fill-opacity: 1;"/><path class="point" transform="translate(88.25,78.26)" d="M6,0A6,6 0 1,1 0,-6A6,6 0 0,1 6,0Z" style="opacity: 1; stroke-width: 0px; fill: rgb(103, 32, 68); fill-opacity: 1;"/><path class="point" transform="translate(156.75,22.65)" d="M6,0A6,6 0 1,1 0,-6A6,6 0 0,1 6,0Z" style="opacity: 1; stroke-width: 0px; fill: rgb(103, 32, 68); fill-opacity: 1;"/><path class="point" transform="translate(225.25,101.74)" d="M6,0A6,6 0 1,1 0,-6A6,6 0 0,1 6,0Z" style="opacity: 1; stroke-width: 0px; fill: rgb(103, 32, 68); fill-opacity: 1;"/></g><g class="text"/></g><g class="trace scatter trace76266b" style="stroke-miterlimit: 2; opacity: 0.7;"><g class="fills"/><g class="errorbars"/><g class="lines"><path class="js-line" d="M19.75,39.95L88.25,127.69L156.75,15.23L225.25,67.14" style="vector-effect: non-scaling-stroke; fill: none; stroke: rgb(73, 24, 45); stroke-opacity: 1; stroke-width: 4px; opacity: 1;"/></g><g class="points"><path class="point" transform="translate(19.75,39.95)" d="M6,0A6,6 0 1,1 0,-6A6,6 0 0,1 6,0Z" style="opacity: 1; stroke-width: 0px; fill: rgb(73, 24, 45); fill-opacity: 1;"/><path class="point" transform="translate(88.25,127.69)" d="M6,0A6,6 0 1,1 0,-6A6,6 0 0,1 6,0Z" style="opacity: 1; stroke-width: 0px; fill: rgb(73, 24, 45); fill-opacity: 1;"/><path class="point" transform="translate(156.75,15.23)" d="M6,0A6,6 0 1,1 0,-6A6,6 0 0,1 6,0Z" style="opacity: 1; stroke-width: 0px; fill: rgb(73, 24, 45); fill-opacity: 1;"/><path class="point" transform="translate(225.25,67.14)" d="M6,0A6,6 0 1,1 0,-6A6,6 0 0,1 6,0Z" style="opacity: 1; stroke-width: 0px; fill: rgb(73, 24, 45); fill-opacity: 1;"/></g><g class="text"/></g></g></g><g class="overplot"/><path class="xlines-above crisp" d="M98,255.66666666666663H345" style="fill: none; stroke-width: 2px; stroke: rgb(0, 0, 0); stroke-opacity: 1;"/><path class="ylines-above crisp" d="M99,100V254.66666666666663" style="fill: none; stroke-width: 2px; stroke: rgb(0, 0, 0); stroke-opacity: 1;"/><g class="overlines-above"/><g class="xaxislayer-above"><path class="x3tick ticks crisp" d="M0,256.66666666666663v5" transform="translate(119.75,0)" style="stroke: rgb(68, 68, 68); stroke-opacity: 1; stroke-width: 2px;"/><path class="x3tick ticks crisp" d="M0,256.66666666666663v5" transform="translate(188.25,0)" style="stroke: rgb(68, 68, 68); stroke-opacity: 1; stroke-width: 2px;"/><path class="x3tick ticks crisp" d="M0,256.66666666666663v5" transform="translate(256.75,0)" style="stroke: rgb(68, 68, 68); stroke-opacity: 1; stroke-width: 2px;"/><path class="x3tick ticks crisp" d="M0,256.66666666666663v5" transform="translate(325.25,0)" style="stroke: rgb(68, 68, 68); stroke-opacity: 1; stroke-width: 2px;"/><g class="x3tick"><text text-anchor="middle" x="0" y="285.66666666666663" transform="translate(119.75,0)" style="font-family: FreeSans; font-size: 20px; fill: rgb(0, 0, 0); fill-opacity: 1; white-space: pre; opacity: 1;">512</text></g><g class="x3tick"><text text-anchor="middle" x="0" y="285.66666666666663" transform="translate(188.25,0)" style="font-family: FreeSans; font-size: 20px; fill: rgb(0, 0, 0); fill-opacity: 1; white-space: pre; opacity: 1;">1024</text></g><g class="x3tick"><text text-anchor="middle" x="0" y="285.66666666666663" transform="translate(256.75,0)" style="font-family: FreeSans; font-size: 20px; fill: rgb(0, 0, 0); fill-opacity: 1; white-space: pre; opacity: 1;">2048</text></g><g class="x3tick"><text text-anchor="middle" x="0" y="285.66666666666663" transform="translate(325.25,0)" style="font-family: FreeSans; font-size: 20px; fill: rgb(0, 0, 0); fill-opacity: 1; white-space: pre; opacity: 1;">4096</text></g></g><g class="yaxislayer-above"><path class="y3tick ticks crisp" d="M98,0h-5" transform="translate(0,230.16)" style="stroke: rgb(68, 68, 68); stroke-opacity: 1; stroke-width: 2px;"/><path class="y3tick ticks crisp" d="M98,0h-5" transform="translate(0,185.68)" style="stroke: rgb(68, 68, 68); stroke-opacity: 1; stroke-width: 2px;"/><path class="y3tick ticks crisp" d="M98,0h-5" transform="translate(0,141.19)" style="stroke: rgb(68, 68, 68); stroke-opacity: 1; stroke-width: 2px;"/><g class="y3tick"><text text-anchor="end" x="89" y="7" transform="translate(0,230.16)" style="font-family: FreeSans; font-size: 20px; fill: rgb(0, 0, 0); fill-opacity: 1; white-space: pre; opacity: 1;">0.48</text></g><g class="y3tick"><text text-anchor="end" x="89" y="7" style="font-family: FreeSans; font-size: 20px; fill: rgb(0, 0, 0); fill-opacity: 1; white-space: pre; opacity: 1;" transform="translate(0,185.68)">0.49</text></g><g class="y3tick"><text text-anchor="end" x="89" y="7" style="font-family: FreeSans; font-size: 20px; fill: rgb(0, 0, 0); fill-opacity: 1; white-space: pre; opacity: 1;" transform="translate(0,141.19)">0.5</text></g></g><g class="overaxes-above"/></g></g><g class="polarlayer"/><g class="smithlayer"/><g class="ternarylayer"/><g class="geolayer"/><g class="funnelarealayer"/><g class="pielayer"/><g class="iciclelayer"/><g class="treemaplayer"/><g class="sunburstlayer"/><g class="glimages"/><defs id="topdefs-8dc81f"><g class="clips"/></defs><g class="layer-above"><g class="imagelayer"/><g class="shapelayer"/></g><g class="infolayer"><g class="g-gtitle"><text class="gtitle" x="200" y="40" text-anchor="middle" dy="0.7em" style="font-family: FreeSans; font-size: 25px; fill: rgb(0, 0, 0); opacity: 1; font-weight: normal; white-space: pre;">Mean time per epochs</text></g><g class="g-xtitle"><text class="xtitle" x="222.5" y="746.8" text-anchor="middle" style="font-family: FreeSans; font-size: 24px; fill: rgb(0, 0, 0); opacity: 1; font-weight: normal; white-space: pre;">H</text></g><g class="g-x2title"/><g class="g-x3title"/><g class="g-ytitle"><text class="ytitle" transform="rotate(-90,22.200000000000003,602.6666666666667)" x="22.200000000000003" y="602.6666666666667" text-anchor="middle" style="font-family: FreeSans; font-size: 24px; fill: rgb(0, 0, 0); opacity: 1; font-weight: normal; white-space: pre;">time (min)</text></g><g class="g-y2title"><text class="y2title" transform="rotate(-90,22.200000000000003,390)" x="22.200000000000003" y="390" text-anchor="middle" style="font-family: FreeSans; font-size: 24px; fill: rgb(0, 0, 0); opacity: 1; font-weight: normal; white-space: pre;">time (min)</text></g><g class="g-y3title"><text class="y3title" transform="rotate(-90,22.200000000000003,177.33333333333331)" x="22.200000000000003" y="177.33333333333331" text-anchor="middle" style="font-family: FreeSans; font-size: 24px; fill: rgb(0, 0, 0); opacity: 1; font-weight: normal; white-space: pre;">time (min)</text></g><g class="annotation" data-index="0" style="opacity: 1;"><g class="annotation-text-g" transform="rotate(90,358,602.6666666666667)"><g class="cursor-pointer" transform="translate(323,590)"><rect class="bg" x="0.5" y="0.5" width="70" height="25" style="stroke-width: 1px; stroke: rgb(0, 0, 0); stroke-opacity: 0; fill: rgb(0, 0, 0); fill-opacity: 0;"/><text class="annotation-text" text-anchor="middle" x="35.421875" y="20" style="font-family: FreeSans; font-size: 20px; fill: rgb(0, 0, 0); fill-opacity: 1; white-space: pre;">EPT=40</text></g></g></g><g class="annotation" data-index="1" style="opacity: 1;"><g class="annotation-text-g" transform="rotate(90,358,390)"><g class="cursor-pointer" transform="translate(323,377)"><rect class="bg" x="0.5" y="0.5" width="70" height="25" style="stroke-width: 1px; stroke: rgb(0, 0, 0); stroke-opacity: 0; fill: rgb(0, 0, 0); fill-opacity: 0;"/><text class="annotation-text" text-anchor="middle" x="35.421875" y="20" style="font-family: FreeSans; font-size: 20px; fill: rgb(0, 0, 0); fill-opacity: 1; white-space: pre;">EPT=20</text></g></g></g><g class="annotation" data-index="2" style="opacity: 1;"><g class="annotation-text-g" transform="rotate(90,358,177.33333333333331)"><g class="cursor-pointer" transform="translate(323,164)"><rect class="bg" x="0.5" y="0.5" width="70" height="25" style="stroke-width: 1px; stroke: rgb(0, 0, 0); stroke-opacity: 0; fill: rgb(0, 0, 0); fill-opacity: 0;"/><text class="annotation-text" text-anchor="middle" x="35.421875" y="20" style="font-family: FreeSans; font-size: 20px; fill: rgb(0, 0, 0); fill-opacity: 1; white-space: pre;">EPT=10</text></g></g></g></g></svg>