<svg class="main-svg" xmlns="http://www.w3.org/2000/svg" xmlns:xlink="http://www.w3.org/1999/xlink" width="700" height="500" style="" viewBox="0 0 700 500"><rect x="0" y="0" width="700" height="500" style="fill: rgb(255, 255, 255); fill-opacity: 1;"/><defs id="defs-a624d3"><g class="clips"><clipPath id="clipa624d3xyplot" class="plotclip"><rect width="493" height="280"/></clipPath><clipPath class="axesclip" id="clipa624d3x"><rect x="100" y="0" width="493" height="500"/></clipPath><clipPath class="axesclip" id="clipa624d3y"><rect x="0" y="100" width="700" height="280"/></clipPath><clipPath class="axesclip" id="clipa624d3xy"><rect x="100" y="100" width="493" height="280"/></clipPath></g><g class="gradients"/><g class="patterns"/></defs><g class="bglayer"/><g class="layer-below"><g class="imagelayer"/><g class="shapelayer"/></g><g class="cartesianlayer"><g class="subplot xy"><g class="layer-subplot"><g class="shapelayer"/><g class="imagelayer"/></g><g class="gridlayer"><g class="x"/><g class="y"/></g><g class="zerolinelayer"><path class="yzl zl crisp" transform="translate(0,376.4)" d="M100,0h493" style="stroke: rgb(255, 255, 255); stroke-opacity: 1; stroke-width: 2px;"/></g><path class="xlines-below"/><path class="ylines-below"/><g class="overlines-below"/><g class="xaxislayer-below"/><g class="yaxislayer-below"/><g class="overaxes-below"/><g class="plot" transform="translate(100,100)" clip-path="url(#clipa624d3xyplot)"><g class="scatterlayer mlayer"><g class="trace scatter trace9c8322" style="stroke-miterlimit: 2; opacity: 1;"><g class="fills"/><g class="errorbars"/><g class="lines"><path class="js-line" d="M37.15,251.19L141.83,251.81L246.5,253.5L351.18,181.69L455.85,28.35" style="vector-effect: non-scaling-stroke; fill: none; stroke: rgb(255, 198, 196); stroke-opacity: 1; stroke-width: 4px; opacity: 1;"/></g><g class="points"><path class="point" transform="translate(37.15,251.19)" d="M10,0A10,10 0 1,1 0,-10A10,10 0 0,1 10,0Z" style="opacity: 1; stroke-width: 0px; fill: rgb(255, 198, 196); fill-opacity: 1;"/><path class="point" transform="translate(141.83,251.81)" d="M10,0A10,10 0 1,1 0,-10A10,10 0 0,1 10,0Z" style="opacity: 1; stroke-width: 0px; fill: rgb(255, 198, 196); fill-opacity: 1;"/><path class="point" transform="translate(246.5,253.5)" d="M10,0A10,10 0 1,1 0,-10A10,10 0 0,1 10,0Z" style="opacity: 1; stroke-width: 0px; fill: rgb(255, 198, 196); fill-opacity: 1;"/><path class="point" transform="translate(351.18,181.69)" d="M10,0A10,10 0 1,1 0,-10A10,10 0 0,1 10,0Z" style="opacity: 1; stroke-width: 0px; fill: rgb(255, 198, 196); fill-opacity: 1;"/><path class="point" transform="translate(455.85,28.35)" d="M10,0A10,10 0 1,1 0,-10A10,10 0 0,1 10,0Z" style="opacity: 1; stroke-width: 0px; fill: rgb(255, 198, 196); fill-opacity: 1;"/></g><g class="text"/></g><g class="trace scatter tracea10245" style="stroke-miterlimit: 2; opacity: 1;"><g class="fills"/><g class="errorbars"/><g class="lines"><path class="js-line" d="M37.15,159.56L141.83,185.03L246.5,75.64L351.18,43.08L455.85,26.5" style="vector-effect: non-scaling-stroke; fill: none; stroke: rgb(244, 163, 168); stroke-opacity: 1; stroke-width: 4px; opacity: 1;"/></g><g class="points"><path class="point" transform="translate(37.15,159.56)" d="M10,0A10,10 0 1,1 0,-10A10,10 0 0,1 10,0Z" style="opacity: 1; stroke-width: 0px; fill: rgb(244, 163, 168); fill-opacity: 1;"/><path class="point" transform="translate(141.83,185.03)" d="M10,0A10,10 0 1,1 0,-10A10,10 0 0,1 10,0Z" style="opacity: 1; stroke-width: 0px; fill: rgb(244, 163, 168); fill-opacity: 1;"/><path class="point" transform="translate(246.5,75.64)" d="M10,0A10,10 0 1,1 0,-10A10,10 0 0,1 10,0Z" style="opacity: 1; stroke-width: 0px; fill: rgb(244, 163, 168); fill-opacity: 1;"/><path class="point" transform="translate(351.18,43.08)" d="M10,0A10,10 0 1,1 0,-10A10,10 0 0,1 10,0Z" style="opacity: 1; stroke-width: 0px; fill: rgb(244, 163, 168); fill-opacity: 1;"/><path class="point" transform="translate(455.85,26.5)" d="M10,0A10,10 0 1,1 0,-10A10,10 0 0,1 10,0Z" style="opacity: 1; stroke-width: 0px; fill: rgb(244, 163, 168); fill-opacity: 1;"/></g><g class="text"/></g><g class="trace scatter traceca9c83" style="stroke-miterlimit: 2; opacity: 1;"><g class="fills"/><g class="errorbars"/><g class="lines"><path class="js-line" d="M37.15,35.51L141.83,30.45L246.5,34.64L351.18,34.69L455.85,36.33" style="vector-effect: non-scaling-stroke; fill: none; stroke: rgb(227, 129, 145); stroke-opacity: 1; stroke-width: 4px; opacity: 1;"/></g><g class="points"><path class="point" transform="translate(37.15,35.51)" d="M10,0A10,10 0 1,1 0,-10A10,10 0 0,1 10,0Z" style="opacity: 1; stroke-width: 0px; fill: rgb(227, 129, 145); fill-opacity: 1;"/><path class="point" transform="translate(141.83,30.45)" d="M10,0A10,10 0 1,1 0,-10A10,10 0 0,1 10,0Z" style="opacity: 1; stroke-width: 0px; fill: rgb(227, 129, 145); fill-opacity: 1;"/><path class="point" transform="translate(246.5,34.64)" d="M10,0A10,10 0 1,1 0,-10A10,10 0 0,1 10,0Z" style="opacity: 1; stroke-width: 0px; fill: rgb(227, 129, 145); fill-opacity: 1;"/><path class="point" transform="translate(351.18,34.69)" d="M10,0A10,10 0 1,1 0,-10A10,10 0 0,1 10,0Z" style="opacity: 1; stroke-width: 0px; fill: rgb(227, 129, 145); fill-opacity: 1;"/><path class="point" transform="translate(455.85,36.33)" d="M10,0A10,10 0 1,1 0,-10A10,10 0 0,1 10,0Z" style="opacity: 1; stroke-width: 0px; fill: rgb(227, 129, 145); fill-opacity: 1;"/></g><g class="text"/></g><g class="trace scatter trace08649a" style="stroke-miterlimit: 2; opacity: 1;"><g class="fills"/><g class="errorbars"/><g class="lines"><path class="js-line" d="M37.15,35.13L141.83,31.74L246.5,41.31L351.18,44.52L455.85,58.28" style="vector-effect: non-scaling-stroke; fill: none; stroke: rgb(204, 96, 125); stroke-opacity: 1; stroke-width: 4px; opacity: 1;"/></g><g class="points"><path class="point" transform="translate(37.15,35.13)" d="M10,0A10,10 0 1,1 0,-10A10,10 0 0,1 10,0Z" style="opacity: 1; stroke-width: 0px; fill: rgb(204, 96, 125); fill-opacity: 1;"/><path class="point" transform="translate(141.83,31.74)" d="M10,0A10,10 0 1,1 0,-10A10,10 0 0,1 10,0Z" style="opacity: 1; stroke-width: 0px; fill: rgb(204, 96, 125); fill-opacity: 1;"/><path class="point" transform="translate(246.5,41.31)" d="M10,0A10,10 0 1,1 0,-10A10,10 0 0,1 10,0Z" style="opacity: 1; stroke-width: 0px; fill: rgb(204, 96, 125); fill-opacity: 1;"/><path class="point" transform="translate(351.18,44.52)" d="M10,0A10,10 0 1,1 0,-10A10,10 0 0,1 10,0Z" style="opacity: 1; stroke-width: 0px; fill: rgb(204, 96, 125); fill-opacity: 1;"/><path class="point" transform="translate(455.85,58.28)" d="M10,0A10,10 0 1,1 0,-10A10,10 0 0,1 10,0Z" style="opacity: 1; stroke-width: 0px; fill: rgb(204, 96, 125); fill-opacity: 1;"/></g><g class="text"/></g></g></g><g class="overplot"/><path class="xlines-above crisp" d="M98,381H593" style="fill: none; stroke-width: 2px; stroke: rgb(0, 0, 0); stroke-opacity: 1;"/><path class="ylines-above crisp" d="M99,100V380" style="fill: none; stroke-width: 2px; stroke: rgb(0, 0, 0); stroke-opacity: 1;"/><g class="overlines-above"/><g class="xaxislayer-above"><path class="xtick ticks crisp" d="M0,382v5" transform="translate(137.15,0)" style="stroke: rgb(68, 68, 68); stroke-opacity: 1; stroke-width: 2px;"/><path class="xtick ticks crisp" d="M0,382v5" transform="translate(241.83,0)" style="stroke: rgb(68, 68, 68); stroke-opacity: 1; stroke-width: 2px;"/><path class="xtick ticks crisp" d="M0,382v5" transform="translate(346.5,0)" style="stroke: rgb(68, 68, 68); stroke-opacity: 1; stroke-width: 2px;"/><path class="xtick ticks crisp" d="M0,382v5" transform="translate(451.18,0)" style="stroke: rgb(68, 68, 68); stroke-opacity: 1; stroke-width: 2px;"/><path class="xtick ticks crisp" d="M0,382v5" transform="translate(555.85,0)" style="stroke: rgb(68, 68, 68); stroke-opacity: 1; stroke-width: 2px;"/><g class="xtick"><text text-anchor="middle" x="0" y="411" transform="translate(137.15,0)" style="font-family: 'Fira Sans'; font-size: 20px; fill: rgb(0, 0, 0); fill-opacity: 1; white-space: pre; opacity: 1;">1</text></g><g class="xtick"><text text-anchor="middle" x="0" y="411" style="font-family: 'Fira Sans'; font-size: 20px; fill: rgb(0, 0, 0); fill-opacity: 1; white-space: pre; opacity: 1;" transform="translate(241.83,0)">2</text></g><g class="xtick"><text text-anchor="middle" x="0" y="411" style="font-family: 'Fira Sans'; font-size: 20px; fill: rgb(0, 0, 0); fill-opacity: 1; white-space: pre; opacity: 1;" transform="translate(346.5,0)">3</text></g><g class="xtick"><text text-anchor="middle" x="0" y="411" style="font-family: 'Fira Sans'; font-size: 20px; fill: rgb(0, 0, 0); fill-opacity: 1; white-space: pre; opacity: 1;" transform="translate(451.18,0)">4</text></g><g class="xtick"><text text-anchor="middle" x="0" y="411" style="font-family: 'Fira Sans'; font-size: 20px; fill: rgb(0, 0, 0); fill-opacity: 1; white-space: pre; opacity: 1;" transform="translate(555.85,0)">5</text></g></g><g class="yaxislayer-above"><path class="ytick ticks crisp" d="M98,0h-5" transform="translate(0,376.4)" style="stroke: rgb(68, 68, 68); stroke-opacity: 1; stroke-width: 2px;"/><path class="ytick ticks crisp" d="M98,0h-5" transform="translate(0,325.05)" style="stroke: rgb(68, 68, 68); stroke-opacity: 1; stroke-width: 2px;"/><path class="ytick ticks crisp" d="M98,0h-5" transform="translate(0,273.71000000000004)" style="stroke: rgb(68, 68, 68); stroke-opacity: 1; stroke-width: 2px;"/><path class="ytick ticks crisp" d="M98,0h-5" transform="translate(0,222.36)" style="stroke: rgb(68, 68, 68); stroke-opacity: 1; stroke-width: 2px;"/><path class="ytick ticks crisp" d="M98,0h-5" transform="translate(0,171.01999999999998)" style="stroke: rgb(68, 68, 68); stroke-opacity: 1; stroke-width: 2px;"/><path class="ytick ticks crisp" d="M98,0h-5" transform="translate(0,119.67)" style="stroke: rgb(68, 68, 68); stroke-opacity: 1; stroke-width: 2px;"/><g class="ytick"><text text-anchor="end" x="89" y="7" transform="translate(0,376.4)" style="font-family: 'Fira Sans'; font-size: 20px; fill: rgb(0, 0, 0); fill-opacity: 1; white-space: pre; opacity: 1;">0</text></g><g class="ytick"><text text-anchor="end" x="89" y="7" style="font-family: 'Fira Sans'; font-size: 20px; fill: rgb(0, 0, 0); fill-opacity: 1; white-space: pre; opacity: 1;" transform="translate(0,325.05)">20</text></g><g class="ytick"><text text-anchor="end" x="89" y="7" style="font-family: 'Fira Sans'; font-size: 20px; fill: rgb(0, 0, 0); fill-opacity: 1; white-space: pre; opacity: 1;" transform="translate(0,273.71000000000004)">40</text></g><g class="ytick"><text text-anchor="end" x="89" y="7" style="font-family: 'Fira Sans'; font-size: 20px; fill: rgb(0, 0, 0); fill-opacity: 1; white-space: pre; opacity: 1;" transform="translate(0,222.36)">60</text></g><g class="ytick"><text text-anchor="end" x="89" y="7" style="font-family: 'Fira Sans'; font-size: 20px; fill: rgb(0, 0, 0); fill-opacity: 1; white-space: pre; opacity: 1;" transform="translate(0,171.01999999999998)">80</text></g><g class="ytick"><text text-anchor="end" x="89" y="7" style="font-family: 'Fira Sans'; font-size: 20px; fill: rgb(0, 0, 0); fill-opacity: 1; white-space: pre; opacity: 1;" transform="translate(0,119.67)">100</text></g></g><g class="overaxes-above"/></g></g><g class="polarlayer"/><g class="ternarylayer"/><g class="geolayer"/><g class="funnelarealayer"/><g class="pielayer"/><g class="iciclelayer"/><g class="treemaplayer"/><g class="sunburstlayer"/><g class="glimages"/><defs id="topdefs-a624d3"><g class="clips"/><clipPath id="legenda624d3"><rect width="85" height="158" x="0" y="0"/></clipPath></defs><g class="layer-above"><g class="imagelayer"/><g class="shapelayer"/></g><g class="infolayer"><g class="legend" pointer-events="all" transform="translate(602.86,100)"><rect class="bg" shape-rendering="crispEdges" style="stroke: rgb(68, 68, 68); stroke-opacity: 1; fill: rgb(255, 255, 255); fill-opacity: 1; stroke-width: 0px;" width="85" height="158" x="0" y="0"/><g class="scrollbox" transform="" clip-path="url(#legenda624d3)"><text class="legendtitletext" text-anchor="start" x="2" y="31.200000000000003" style="font-family: 'Fira Sans'; font-size: 24px; fill: rgb(0, 0, 0); fill-opacity: 1; white-space: pre;"># units</text><g class="groups" transform=""><g class="traces" transform="translate(0,50.7)" style="opacity: 1;"><text class="legendtext" text-anchor="start" x="40" y="7.8" style="font-family: 'Fira Sans'; font-size: 20px; fill: rgb(0, 0, 0); fill-opacity: 1; white-space: pre;">4096</text><g class="layers" style="opacity: 1;"><g class="legendfill"/><g class="legendlines"><path class="js-line" d="M5,0h30" style="fill: none; stroke: rgb(255, 198, 196); stroke-opacity: 1; stroke-width: 4px;"/></g><g class="legendsymbols"><g class="legendpoints"><path class="scatterpts" transform="translate(20,0)" d="M8,0A8,8 0 1,1 0,-8A8,8 0 0,1 8,0Z" style="opacity: 1; stroke-width: 0px; fill: rgb(255, 198, 196); fill-opacity: 1;"/></g></g></g><rect class="legendtoggle" x="0" y="-14.5" width="80" height="29" style="fill: rgb(0, 0, 0); fill-opacity: 0;"/></g></g><g class="groups" transform=""><g class="traces" transform="translate(0,79.7)" style="opacity: 1;"><text class="legendtext" text-anchor="start" x="40" y="7.8" style="font-family: 'Fira Sans'; font-size: 20px; fill: rgb(0, 0, 0); fill-opacity: 1; white-space: pre;">2048</text><g class="layers" style="opacity: 1;"><g class="legendfill"/><g class="legendlines"><path class="js-line" d="M5,0h30" style="fill: none; stroke: rgb(244, 163, 168); stroke-opacity: 1; stroke-width: 4px;"/></g><g class="legendsymbols"><g class="legendpoints"><path class="scatterpts" transform="translate(20,0)" d="M8,0A8,8 0 1,1 0,-8A8,8 0 0,1 8,0Z" style="opacity: 1; stroke-width: 0px; fill: rgb(244, 163, 168); fill-opacity: 1;"/></g></g></g><rect class="legendtoggle" x="0" y="-14.5" width="80" height="29" style="fill: rgb(0, 0, 0); fill-opacity: 0;"/></g></g><g class="groups" transform=""><g class="traces" transform="translate(0,108.7)" style="opacity: 1;"><text class="legendtext" text-anchor="start" x="40" y="7.8" style="font-family: 'Fira Sans'; font-size: 20px; fill: rgb(0, 0, 0); fill-opacity: 1; white-space: pre;">1024</text><g class="layers" style="opacity: 1;"><g class="legendfill"/><g class="legendlines"><path class="js-line" d="M5,0h30" style="fill: none; stroke: rgb(227, 129, 145); stroke-opacity: 1; stroke-width: 4px;"/></g><g class="legendsymbols"><g class="legendpoints"><path class="scatterpts" transform="translate(20,0)" d="M8,0A8,8 0 1,1 0,-8A8,8 0 0,1 8,0Z" style="opacity: 1; stroke-width: 0px; fill: rgb(227, 129, 145); fill-opacity: 1;"/></g></g></g><rect class="legendtoggle" x="0" y="-14.5" width="80" height="29" style="fill: rgb(0, 0, 0); fill-opacity: 0;"/></g></g><g class="groups" transform=""><g class="traces" transform="translate(0,137.7)" style="opacity: 1;"><text class="legendtext" text-anchor="start" x="40" y="7.8" style="font-family: 'Fira Sans'; font-size: 20px; fill: rgb(0, 0, 0); fill-opacity: 1; white-space: pre;">512</text><g class="layers" style="opacity: 1;"><g class="legendfill"/><g class="legendlines"><path class="js-line" d="M5,0h30" style="fill: none; stroke: rgb(204, 96, 125); stroke-opacity: 1; stroke-width: 4px;"/></g><g class="legendsymbols"><g class="legendpoints"><path class="scatterpts" transform="translate(20,0)" d="M8,0A8,8 0 1,1 0,-8A8,8 0 0,1 8,0Z" style="opacity: 1; stroke-width: 0px; fill: rgb(204, 96, 125); fill-opacity: 1;"/></g></g></g><rect class="legendtoggle" x="0" y="-14.5" width="80" height="29" style="fill: rgb(0, 0, 0); fill-opacity: 0;"/></g></g></g><rect class="scrollbar" rx="20" ry="3" width="0" height="0" style="fill: rgb(128, 139, 164); fill-opacity: 1;" x="0" y="0"/></g><g class="g-gtitle"><text class="gtitle" x="350" y="50" text-anchor="middle" dy="0.7em" style="font-family: 'Fira Sans'; font-size: 25px; fill: rgb(0, 0, 0); opacity: 1; font-weight: normal; white-space: pre;">Variations of # hidden units per layer (meta = 1.35)</text></g><g class="g-xtitle"><text class="xtitle" x="346.5" y="446.8" text-anchor="middle" style="font-family: 'Fira Sans'; font-size: 24px; fill: rgb(0, 0, 0); opacity: 1; font-weight: normal; white-space: pre;">test_set</text></g><g class="g-ytitle"><text class="ytitle" transform="rotate(-90,27.200000000000003,240)" x="27.200000000000003" y="240" text-anchor="middle" style="font-family: 'Fira Sans'; font-size: 24px; fill: rgb(0, 0, 0); opacity: 1; font-weight: normal; white-space: pre;">final test acc</text></g></g></svg>