<svg class="main-svg" xmlns="http://www.w3.org/2000/svg" xmlns:xlink="http://www.w3.org/1999/xlink" width="700" height="500" style="" viewBox="0 0 700 500"><rect x="0" y="0" width="700" height="500" style="fill: rgb(255, 255, 255); fill-opacity: 1;"/><defs id="defs-8943ed"><g class="clips"><clipPath id="clip8943edxyplot" class="plotclip"><rect width="498" height="280"/></clipPath><clipPath class="axesclip" id="clip8943edx"><rect x="100" y="0" width="498" height="500"/></clipPath><clipPath class="axesclip" id="clip8943edy"><rect x="0" y="100" width="700" height="280"/></clipPath><clipPath class="axesclip" id="clip8943edxy"><rect x="100" y="100" width="498" height="280"/></clipPath></g><g class="gradients"/><g class="patterns"/></defs><g class="bglayer"/><g class="layer-below"><g class="imagelayer"/><g class="shapelayer"/></g><g class="cartesianlayer"><g class="subplot xy"><g class="layer-subplot"><g class="shapelayer"/><g class="imagelayer"/></g><g class="gridlayer"><g class="x"/><g class="y"/></g><g class="zerolinelayer"><path class="yzl zl crisp" transform="translate(0,375.65)" d="M100,0h498" style="stroke: rgb(255, 255, 255); stroke-opacity: 1; stroke-width: 2px;"/></g><path class="xlines-below"/><path class="ylines-below"/><g class="overlines-below"/><g class="xaxislayer-below"/><g class="yaxislayer-below"/><g class="overaxes-below"/><g class="plot" transform="translate(100,100)" clip-path="url(#clip8943edxyplot)"><g class="scatterlayer mlayer"><g class="trace scatter tracea68d83" style="stroke-miterlimit: 2; opacity: 1;"><g class="fills"/><g class="errorbars"/><g class="lines"><path class="js-line" d="M37.4,249.05L143.2,238.25L249,253.5L354.8,208.64L460.6,26.6" style="vector-effect: non-scaling-stroke; fill: none; stroke: rgb(255, 198, 196); stroke-opacity: 1; stroke-width: 4px; opacity: 1;"/></g><g class="points"><path class="point" transform="translate(37.4,249.05)" d="M10,0A10,10 0 1,1 0,-10A10,10 0 0,1 10,0Z" style="opacity: 1; stroke-width: 0px; fill: rgb(255, 198, 196); fill-opacity: 1;"/><path class="point" transform="translate(143.2,238.25)" d="M10,0A10,10 0 1,1 0,-10A10,10 0 0,1 10,0Z" style="opacity: 1; stroke-width: 0px; fill: rgb(255, 198, 196); fill-opacity: 1;"/><path class="point" transform="translate(249,253.5)" d="M10,0A10,10 0 1,1 0,-10A10,10 0 0,1 10,0Z" style="opacity: 1; stroke-width: 0px; fill: rgb(255, 198, 196); fill-opacity: 1;"/><path class="point" transform="translate(354.8,208.64)" d="M10,0A10,10 0 1,1 0,-10A10,10 0 0,1 10,0Z" style="opacity: 1; stroke-width: 0px; fill: rgb(255, 198, 196); fill-opacity: 1;"/><path class="point" transform="translate(460.6,26.6)" d="M10,0A10,10 0 1,1 0,-10A10,10 0 0,1 10,0Z" style="opacity: 1; stroke-width: 0px; fill: rgb(255, 198, 196); fill-opacity: 1;"/></g><g class="text"/></g><g class="trace scatter tracee0de68" style="stroke-miterlimit: 2; opacity: 1;"><g class="fills"/><g class="errorbars"/><g class="lines"><path class="js-line" d="M37.4,229.29L143.2,212.97L249,166.39L354.8,152.31L460.6,26.5" style="vector-effect: non-scaling-stroke; fill: none; stroke: rgb(244, 163, 168); stroke-opacity: 1; stroke-width: 4px; opacity: 1;"/></g><g class="points"><path class="point" transform="translate(37.4,229.29)" d="M10,0A10,10 0 1,1 0,-10A10,10 0 0,1 10,0Z" style="opacity: 1; stroke-width: 0px; fill: rgb(244, 163, 168); fill-opacity: 1;"/><path class="point" transform="translate(143.2,212.97)" d="M10,0A10,10 0 1,1 0,-10A10,10 0 0,1 10,0Z" style="opacity: 1; stroke-width: 0px; fill: rgb(244, 163, 168); fill-opacity: 1;"/><path class="point" transform="translate(249,166.39)" d="M10,0A10,10 0 1,1 0,-10A10,10 0 0,1 10,0Z" style="opacity: 1; stroke-width: 0px; fill: rgb(244, 163, 168); fill-opacity: 1;"/><path class="point" transform="translate(354.8,152.31)" d="M10,0A10,10 0 1,1 0,-10A10,10 0 0,1 10,0Z" style="opacity: 1; stroke-width: 0px; fill: rgb(244, 163, 168); fill-opacity: 1;"/><path class="point" transform="translate(460.6,26.5)" d="M10,0A10,10 0 1,1 0,-10A10,10 0 0,1 10,0Z" style="opacity: 1; stroke-width: 0px; fill: rgb(244, 163, 168); fill-opacity: 1;"/></g><g class="text"/></g><g class="trace scatter tracee609c6" style="stroke-miterlimit: 2; opacity: 1;"><g class="fills"/><g class="errorbars"/><g class="lines"><path class="js-line" d="M37.4,52.21L143.2,39.33L249,37.17L354.8,38.77L460.6,32.23" style="vector-effect: non-scaling-stroke; fill: none; stroke: rgb(227, 129, 145); stroke-opacity: 1; stroke-width: 4px; opacity: 1;"/></g><g class="points"><path class="point" transform="translate(37.4,52.21)" d="M10,0A10,10 0 1,1 0,-10A10,10 0 0,1 10,0Z" style="opacity: 1; stroke-width: 0px; fill: rgb(227, 129, 145); fill-opacity: 1;"/><path class="point" transform="translate(143.2,39.33)" d="M10,0A10,10 0 1,1 0,-10A10,10 0 0,1 10,0Z" style="opacity: 1; stroke-width: 0px; fill: rgb(227, 129, 145); fill-opacity: 1;"/><path class="point" transform="translate(249,37.17)" d="M10,0A10,10 0 1,1 0,-10A10,10 0 0,1 10,0Z" style="opacity: 1; stroke-width: 0px; fill: rgb(227, 129, 145); fill-opacity: 1;"/><path class="point" transform="translate(354.8,38.77)" d="M10,0A10,10 0 1,1 0,-10A10,10 0 0,1 10,0Z" style="opacity: 1; stroke-width: 0px; fill: rgb(227, 129, 145); fill-opacity: 1;"/><path class="point" transform="translate(460.6,32.23)" d="M10,0A10,10 0 1,1 0,-10A10,10 0 0,1 10,0Z" style="opacity: 1; stroke-width: 0px; fill: rgb(227, 129, 145); fill-opacity: 1;"/></g><g class="text"/></g><g class="trace scatter trace12c086" style="stroke-miterlimit: 2; opacity: 1;"><g class="fills"/><g class="errorbars"/><g class="lines"><path class="js-line" d="M37.4,31.16L143.2,30.85L249,35.92L354.8,36.12L460.6,45.52" style="vector-effect: non-scaling-stroke; fill: none; stroke: rgb(204, 96, 125); stroke-opacity: 1; stroke-width: 4px; opacity: 1;"/></g><g class="points"><path class="point" transform="translate(37.4,31.16)" d="M10,0A10,10 0 1,1 0,-10A10,10 0 0,1 10,0Z" style="opacity: 1; stroke-width: 0px; fill: rgb(204, 96, 125); fill-opacity: 1;"/><path class="point" transform="translate(143.2,30.85)" d="M10,0A10,10 0 1,1 0,-10A10,10 0 0,1 10,0Z" style="opacity: 1; stroke-width: 0px; fill: rgb(204, 96, 125); fill-opacity: 1;"/><path class="point" transform="translate(249,35.92)" d="M10,0A10,10 0 1,1 0,-10A10,10 0 0,1 10,0Z" style="opacity: 1; stroke-width: 0px; fill: rgb(204, 96, 125); fill-opacity: 1;"/><path class="point" transform="translate(354.8,36.12)" d="M10,0A10,10 0 1,1 0,-10A10,10 0 0,1 10,0Z" style="opacity: 1; stroke-width: 0px; fill: rgb(204, 96, 125); fill-opacity: 1;"/><path class="point" transform="translate(460.6,45.52)" d="M10,0A10,10 0 1,1 0,-10A10,10 0 0,1 10,0Z" style="opacity: 1; stroke-width: 0px; fill: rgb(204, 96, 125); fill-opacity: 1;"/></g><g class="text"/></g><g class="trace scatter tracee75880" style="stroke-miterlimit: 2; opacity: 1;"><g class="fills"/><g class="errorbars"/><g class="lines"><path class="js-line" d="M37.4,26.96L143.2,28.21L249,34.72L354.8,47.63L460.6,52.54" style="vector-effect: non-scaling-stroke; fill: none; stroke: rgb(173, 70, 108); stroke-opacity: 1; stroke-width: 4px; opacity: 1;"/></g><g class="points"><path class="point" transform="translate(37.4,26.96)" d="M10,0A10,10 0 1,1 0,-10A10,10 0 0,1 10,0Z" style="opacity: 1; stroke-width: 0px; fill: rgb(173, 70, 108); fill-opacity: 1;"/><path class="point" transform="translate(143.2,28.21)" d="M10,0A10,10 0 1,1 0,-10A10,10 0 0,1 10,0Z" style="opacity: 1; stroke-width: 0px; fill: rgb(173, 70, 108); fill-opacity: 1;"/><path class="point" transform="translate(249,34.72)" d="M10,0A10,10 0 1,1 0,-10A10,10 0 0,1 10,0Z" style="opacity: 1; stroke-width: 0px; fill: rgb(173, 70, 108); fill-opacity: 1;"/><path class="point" transform="translate(354.8,47.63)" d="M10,0A10,10 0 1,1 0,-10A10,10 0 0,1 10,0Z" style="opacity: 1; stroke-width: 0px; fill: rgb(173, 70, 108); fill-opacity: 1;"/><path class="point" transform="translate(460.6,52.54)" d="M10,0A10,10 0 1,1 0,-10A10,10 0 0,1 10,0Z" style="opacity: 1; stroke-width: 0px; fill: rgb(173, 70, 108); fill-opacity: 1;"/></g><g class="text"/></g></g></g><g class="overplot"/><path class="xlines-above crisp" d="M98,381H598" style="fill: none; stroke-width: 2px; stroke: rgb(0, 0, 0); stroke-opacity: 1;"/><path class="ylines-above crisp" d="M99,100V380" style="fill: none; stroke-width: 2px; stroke: rgb(0, 0, 0); stroke-opacity: 1;"/><g class="overlines-above"/><g class="xaxislayer-above"><path class="xtick ticks crisp" d="M0,382v5" transform="translate(137.4,0)" style="stroke: rgb(68, 68, 68); stroke-opacity: 1; stroke-width: 2px;"/><path class="xtick ticks crisp" d="M0,382v5" transform="translate(243.2,0)" style="stroke: rgb(68, 68, 68); stroke-opacity: 1; stroke-width: 2px;"/><path class="xtick ticks crisp" d="M0,382v5" transform="translate(349,0)" style="stroke: rgb(68, 68, 68); stroke-opacity: 1; stroke-width: 2px;"/><path class="xtick ticks crisp" d="M0,382v5" transform="translate(454.8,0)" style="stroke: rgb(68, 68, 68); stroke-opacity: 1; stroke-width: 2px;"/><path class="xtick ticks crisp" d="M0,382v5" transform="translate(560.6,0)" style="stroke: rgb(68, 68, 68); stroke-opacity: 1; stroke-width: 2px;"/><g class="xtick"><text text-anchor="middle" x="0" y="411" transform="translate(137.4,0)" style="font-family: 'Fira Sans'; font-size: 20px; fill: rgb(0, 0, 0); fill-opacity: 1; white-space: pre; opacity: 1;">1</text></g><g class="xtick"><text text-anchor="middle" x="0" y="411" style="font-family: 'Fira Sans'; font-size: 20px; fill: rgb(0, 0, 0); fill-opacity: 1; white-space: pre; opacity: 1;" transform="translate(243.2,0)">2</text></g><g class="xtick"><text text-anchor="middle" x="0" y="411" style="font-family: 'Fira Sans'; font-size: 20px; fill: rgb(0, 0, 0); fill-opacity: 1; white-space: pre; opacity: 1;" transform="translate(349,0)">3</text></g><g class="xtick"><text text-anchor="middle" x="0" y="411" style="font-family: 'Fira Sans'; font-size: 20px; fill: rgb(0, 0, 0); fill-opacity: 1; white-space: pre; opacity: 1;" transform="translate(454.8,0)">4</text></g><g class="xtick"><text text-anchor="middle" x="0" y="411" style="font-family: 'Fira Sans'; font-size: 20px; fill: rgb(0, 0, 0); fill-opacity: 1; white-space: pre; opacity: 1;" transform="translate(560.6,0)">5</text></g></g><g class="yaxislayer-above"><path class="ytick ticks crisp" d="M98,0h-5" transform="translate(0,375.65)" style="stroke: rgb(68, 68, 68); stroke-opacity: 1; stroke-width: 2px;"/><path class="ytick ticks crisp" d="M98,0h-5" transform="translate(0,324.73)" style="stroke: rgb(68, 68, 68); stroke-opacity: 1; stroke-width: 2px;"/><path class="ytick ticks crisp" d="M98,0h-5" transform="translate(0,273.82)" style="stroke: rgb(68, 68, 68); stroke-opacity: 1; stroke-width: 2px;"/><path class="ytick ticks crisp" d="M98,0h-5" transform="translate(0,222.91)" style="stroke: rgb(68, 68, 68); stroke-opacity: 1; stroke-width: 2px;"/><path class="ytick ticks crisp" d="M98,0h-5" transform="translate(0,171.99)" style="stroke: rgb(68, 68, 68); stroke-opacity: 1; stroke-width: 2px;"/><path class="ytick ticks crisp" d="M98,0h-5" transform="translate(0,121.08)" style="stroke: rgb(68, 68, 68); stroke-opacity: 1; stroke-width: 2px;"/><g class="ytick"><text text-anchor="end" x="89" y="7" transform="translate(0,375.65)" style="font-family: 'Fira Sans'; font-size: 20px; fill: rgb(0, 0, 0); fill-opacity: 1; white-space: pre; opacity: 1;">0</text></g><g class="ytick"><text text-anchor="end" x="89" y="7" style="font-family: 'Fira Sans'; font-size: 20px; fill: rgb(0, 0, 0); fill-opacity: 1; white-space: pre; opacity: 1;" transform="translate(0,324.73)">20</text></g><g class="ytick"><text text-anchor="end" x="89" y="7" style="font-family: 'Fira Sans'; font-size: 20px; fill: rgb(0, 0, 0); fill-opacity: 1; white-space: pre; opacity: 1;" transform="translate(0,273.82)">40</text></g><g class="ytick"><text text-anchor="end" x="89" y="7" style="font-family: 'Fira Sans'; font-size: 20px; fill: rgb(0, 0, 0); fill-opacity: 1; white-space: pre; opacity: 1;" transform="translate(0,222.91)">60</text></g><g class="ytick"><text text-anchor="end" x="89" y="7" style="font-family: 'Fira Sans'; font-size: 20px; fill: rgb(0, 0, 0); fill-opacity: 1; white-space: pre; opacity: 1;" transform="translate(0,171.99)">80</text></g><g class="ytick"><text text-anchor="end" x="89" y="7" style="font-family: 'Fira Sans'; font-size: 20px; fill: rgb(0, 0, 0); fill-opacity: 1; white-space: pre; opacity: 1;" transform="translate(0,121.08)">100</text></g></g><g class="overaxes-above"/></g></g><g class="polarlayer"/><g class="ternarylayer"/><g class="geolayer"/><g class="funnelarealayer"/><g class="pielayer"/><g class="iciclelayer"/><g class="treemaplayer"/><g class="sunburstlayer"/><g class="glimages"/><defs id="topdefs-8943ed"><g class="clips"/><clipPath id="legend8943ed"><rect width="80" height="187" x="0" y="0"/></clipPath></defs><g class="layer-above"><g class="imagelayer"/><g class="shapelayer"/></g><g class="infolayer"><g class="legend" pointer-events="all" transform="translate(607.96,100)"><rect class="bg" shape-rendering="crispEdges" style="stroke: rgb(68, 68, 68); stroke-opacity: 1; fill: rgb(255, 255, 255); fill-opacity: 1; stroke-width: 0px;" width="80" height="187" x="0" y="0"/><g class="scrollbox" transform="" clip-path="url(#legend8943ed)"><text class="legendtitletext" text-anchor="start" x="2" y="31.200000000000003" style="font-family: 'Fira Sans'; font-size: 24px; fill: rgb(0, 0, 0); fill-opacity: 1; white-space: pre;">meta</text><g class="groups" transform=""><g class="traces" transform="translate(0,50.7)" style="opacity: 1;"><text class="legendtext" text-anchor="start" x="40" y="7.8" style="font-family: 'Fira Sans'; font-size: 20px; fill: rgb(0, 0, 0); fill-opacity: 1; white-space: pre;">0.0</text><g class="layers" style="opacity: 1;"><g class="legendfill"/><g class="legendlines"><path class="js-line" d="M5,0h30" style="fill: none; stroke: rgb(255, 198, 196); stroke-opacity: 1; stroke-width: 4px;"/></g><g class="legendsymbols"><g class="legendpoints"><path class="scatterpts" transform="translate(20,0)" d="M8,0A8,8 0 1,1 0,-8A8,8 0 0,1 8,0Z" style="opacity: 1; stroke-width: 0px; fill: rgb(255, 198, 196); fill-opacity: 1;"/></g></g></g><rect class="legendtoggle" x="0" y="-14.5" width="75" height="29" style="fill: rgb(0, 0, 0); fill-opacity: 0;"/></g></g><g class="groups" transform=""><g class="traces" transform="translate(0,79.7)" style="opacity: 1;"><text class="legendtext" text-anchor="start" x="40" y="7.8" style="font-family: 'Fira Sans'; font-size: 20px; fill: rgb(0, 0, 0); fill-opacity: 1; white-space: pre;">0.5</text><g class="layers" style="opacity: 1;"><g class="legendfill"/><g class="legendlines"><path class="js-line" d="M5,0h30" style="fill: none; stroke: rgb(244, 163, 168); stroke-opacity: 1; stroke-width: 4px;"/></g><g class="legendsymbols"><g class="legendpoints"><path class="scatterpts" transform="translate(20,0)" d="M8,0A8,8 0 1,1 0,-8A8,8 0 0,1 8,0Z" style="opacity: 1; stroke-width: 0px; fill: rgb(244, 163, 168); fill-opacity: 1;"/></g></g></g><rect class="legendtoggle" x="0" y="-14.5" width="75" height="29" style="fill: rgb(0, 0, 0); fill-opacity: 0;"/></g></g><g class="groups" transform=""><g class="traces" transform="translate(0,108.7)" style="opacity: 1;"><text class="legendtext" text-anchor="start" x="40" y="7.8" style="font-family: 'Fira Sans'; font-size: 20px; fill: rgb(0, 0, 0); fill-opacity: 1; white-space: pre;">1.0</text><g class="layers" style="opacity: 1;"><g class="legendfill"/><g class="legendlines"><path class="js-line" d="M5,0h30" style="fill: none; stroke: rgb(227, 129, 145); stroke-opacity: 1; stroke-width: 4px;"/></g><g class="legendsymbols"><g class="legendpoints"><path class="scatterpts" transform="translate(20,0)" d="M8,0A8,8 0 1,1 0,-8A8,8 0 0,1 8,0Z" style="opacity: 1; stroke-width: 0px; fill: rgb(227, 129, 145); fill-opacity: 1;"/></g></g></g><rect class="legendtoggle" x="0" y="-14.5" width="75" height="29" style="fill: rgb(0, 0, 0); fill-opacity: 0;"/></g></g><g class="groups" transform=""><g class="traces" transform="translate(0,137.7)" style="opacity: 1;"><text class="legendtext" text-anchor="start" x="40" y="7.8" style="font-family: 'Fira Sans'; font-size: 20px; fill: rgb(0, 0, 0); fill-opacity: 1; white-space: pre;">1.35</text><g class="layers" style="opacity: 1;"><g class="legendfill"/><g class="legendlines"><path class="js-line" d="M5,0h30" style="fill: none; stroke: rgb(204, 96, 125); stroke-opacity: 1; stroke-width: 4px;"/></g><g class="legendsymbols"><g class="legendpoints"><path class="scatterpts" transform="translate(20,0)" d="M8,0A8,8 0 1,1 0,-8A8,8 0 0,1 8,0Z" style="opacity: 1; stroke-width: 0px; fill: rgb(204, 96, 125); fill-opacity: 1;"/></g></g></g><rect class="legendtoggle" x="0" y="-14.5" width="75" height="29" style="fill: rgb(0, 0, 0); fill-opacity: 0;"/></g></g><g class="groups" transform=""><g class="traces" transform="translate(0,166.7)" style="opacity: 1;"><text class="legendtext" text-anchor="start" x="40" y="7.8" style="font-family: 'Fira Sans'; font-size: 20px; fill: rgb(0, 0, 0); fill-opacity: 1; white-space: pre;">2.0</text><g class="layers" style="opacity: 1;"><g class="legendfill"/><g class="legendlines"><path class="js-line" d="M5,0h30" style="fill: none; stroke: rgb(173, 70, 108); stroke-opacity: 1; stroke-width: 4px;"/></g><g class="legendsymbols"><g class="legendpoints"><path class="scatterpts" transform="translate(20,0)" d="M8,0A8,8 0 1,1 0,-8A8,8 0 0,1 8,0Z" style="opacity: 1; stroke-width: 0px; fill: rgb(173, 70, 108); fill-opacity: 1;"/></g></g></g><rect class="legendtoggle" x="0" y="-14.5" width="75" height="29" style="fill: rgb(0, 0, 0); fill-opacity: 0;"/></g></g></g><rect class="scrollbar" rx="20" ry="3" width="0" height="0" style="fill: rgb(128, 139, 164); fill-opacity: 1;" x="0" y="0"/></g><g class="g-gtitle"><text class="gtitle" x="350" y="50" text-anchor="middle" dy="0.7em" style="font-family: 'Fira Sans'; font-size: 25px; fill: rgb(0, 0, 0); opacity: 1; font-weight: normal; white-space: pre;">Variations of meta (1024 x 1024)</text></g><g class="g-xtitle"><text class="xtitle" x="349" y="446.8" text-anchor="middle" style="font-family: 'Fira Sans'; font-size: 24px; fill: rgb(0, 0, 0); opacity: 1; font-weight: normal; white-space: pre;">test_set</text></g><g class="g-ytitle"><text class="ytitle" transform="rotate(-90,27.200000000000003,240)" x="27.200000000000003" y="240" text-anchor="middle" style="font-family: 'Fira Sans'; font-size: 24px; fill: rgb(0, 0, 0); opacity: 1; font-weight: normal; white-space: pre;">final test acc</text></g></g></svg>