<svg class="main-svg" xmlns="http://www.w3.org/2000/svg" xmlns:xlink="http://www.w3.org/1999/xlink" width="1000" height="400" style="" viewBox="0 0 1000 400"><rect x="0" y="0" width="1000" height="400" style="fill: rgb(255, 255, 255); fill-opacity: 1;"/><defs id="defs-772fe9"><g class="clips"><clipPath id="clip772fe9xyplot" class="plotclip"><rect width="376.2" height="180"/></clipPath><clipPath id="clip772fe9x2y2plot" class="plotclip"><rect width="376.2" height="180"/></clipPath><clipPath class="axesclip" id="clip772fe9x"><rect x="100" y="0" width="376.2" height="400"/></clipPath><clipPath class="axesclip" id="clip772fe9y"><rect x="0" y="100" width="1000" height="180"/></clipPath><clipPath class="axesclip" id="clip772fe9xy"><rect x="100" y="100" width="376.2" height="180"/></clipPath><clipPath class="axesclip" id="clip772fe9y2"><rect x="0" y="100" width="1000" height="180"/></clipPath><clipPath class="axesclip" id="clip772fe9xy2"><rect x="100" y="100" width="376.2" height="180"/></clipPath><clipPath class="axesclip" id="clip772fe9x2"><rect x="515.8" y="0" width="376.2" height="400"/></clipPath><clipPath class="axesclip" id="clip772fe9x2y"><rect x="515.8" y="100" width="376.2" height="180"/></clipPath><clipPath class="axesclip" id="clip772fe9x2y2"><rect x="515.8" y="100" width="376.2" height="180"/></clipPath></g><g class="gradients"/><g class="patterns"/></defs><g class="bglayer"/><g class="layer-below"><g class="imagelayer"/><g class="shapelayer"/></g><g class="cartesianlayer"><g class="subplot xy"><g class="layer-subplot"><g class="shapelayer"/><g class="imagelayer"/></g><g class="gridlayer"><g class="x"/><g class="y"/></g><g class="zerolinelayer"><path class="yzl zl crisp" transform="translate(0,276.05)" d="M100,0h376.2" style="stroke: rgb(255, 255, 255); stroke-opacity: 1; stroke-width: 2px;"/></g><path class="xlines-below"/><path class="ylines-below"/><g class="overlines-below"/><g class="xaxislayer-below"/><g class="yaxislayer-below"/><g class="overaxes-below"/><g class="plot" transform="translate(100,100)" clip-path="url(#clip772fe9xyplot)"><g class="scatterlayer mlayer"><g class="trace scatter traceeb7d62" style="stroke-miterlimit: 2; opacity: 0.7;"><g class="fills"/><g class="errorbars"/><g class="lines"><path class="js-line" d="M28.18,160.51L92.15,154.89L156.12,157.05L220.08,161.63L284.05,142.76L348.02,18.38" style="vector-effect: non-scaling-stroke; fill: none; stroke: rgb(255, 198, 196); stroke-opacity: 1; stroke-width: 4px; opacity: 1;"/></g><g class="points"><path class="point" transform="translate(28.18,160.51)" d="M7.5,0A7.5,7.5 0 1,1 0,-7.5A7.5,7.5 0 0,1 7.5,0Z" style="opacity: 1; stroke-width: 0px; fill: rgb(255, 198, 196); fill-opacity: 1;"/><path class="point" transform="translate(92.15,154.89)" d="M7.5,0A7.5,7.5 0 1,1 0,-7.5A7.5,7.5 0 0,1 7.5,0Z" style="opacity: 1; stroke-width: 0px; fill: rgb(255, 198, 196); fill-opacity: 1;"/><path class="point" transform="translate(156.12,157.05)" d="M7.5,0A7.5,7.5 0 1,1 0,-7.5A7.5,7.5 0 0,1 7.5,0Z" style="opacity: 1; stroke-width: 0px; fill: rgb(255, 198, 196); fill-opacity: 1;"/><path class="point" transform="translate(220.08,161.63)" d="M7.5,0A7.5,7.5 0 1,1 0,-7.5A7.5,7.5 0 0,1 7.5,0Z" style="opacity: 1; stroke-width: 0px; fill: rgb(255, 198, 196); fill-opacity: 1;"/><path class="point" transform="translate(284.05,142.76)" d="M7.5,0A7.5,7.5 0 1,1 0,-7.5A7.5,7.5 0 0,1 7.5,0Z" style="opacity: 1; stroke-width: 0px; fill: rgb(255, 198, 196); fill-opacity: 1;"/><path class="point" transform="translate(348.02,18.38)" d="M7.5,0A7.5,7.5 0 1,1 0,-7.5A7.5,7.5 0 0,1 7.5,0Z" style="opacity: 1; stroke-width: 0px; fill: rgb(255, 198, 196); fill-opacity: 1;"/></g><g class="text"/></g><g class="trace scatter trace362e48" style="stroke-miterlimit: 2; opacity: 0.7;"><g class="fills"/><g class="errorbars"/><g class="lines"><path class="js-line" d="M28.18,160.12L92.15,153.42L156.12,28.84L220.08,18.99L284.05,19.12L348.02,18.41" style="vector-effect: non-scaling-stroke; fill: none; stroke: rgb(204, 96, 125); stroke-opacity: 1; stroke-width: 4px; opacity: 1;"/></g><g class="points"><path class="point" transform="translate(28.18,160.12)" d="M7.5,0A7.5,7.5 0 1,1 0,-7.5A7.5,7.5 0 0,1 7.5,0Z" style="opacity: 1; stroke-width: 0px; fill: rgb(204, 96, 125); fill-opacity: 1;"/><path class="point" transform="translate(92.15,153.42)" d="M7.5,0A7.5,7.5 0 1,1 0,-7.5A7.5,7.5 0 0,1 7.5,0Z" style="opacity: 1; stroke-width: 0px; fill: rgb(204, 96, 125); fill-opacity: 1;"/><path class="point" transform="translate(156.12,28.84)" d="M7.5,0A7.5,7.5 0 1,1 0,-7.5A7.5,7.5 0 0,1 7.5,0Z" style="opacity: 1; stroke-width: 0px; fill: rgb(204, 96, 125); fill-opacity: 1;"/><path class="point" transform="translate(220.08,18.99)" d="M7.5,0A7.5,7.5 0 1,1 0,-7.5A7.5,7.5 0 0,1 7.5,0Z" style="opacity: 1; stroke-width: 0px; fill: rgb(204, 96, 125); fill-opacity: 1;"/><path class="point" transform="translate(284.05,19.12)" d="M7.5,0A7.5,7.5 0 1,1 0,-7.5A7.5,7.5 0 0,1 7.5,0Z" style="opacity: 1; stroke-width: 0px; fill: rgb(204, 96, 125); fill-opacity: 1;"/><path class="point" transform="translate(348.02,18.41)" d="M7.5,0A7.5,7.5 0 1,1 0,-7.5A7.5,7.5 0 0,1 7.5,0Z" style="opacity: 1; stroke-width: 0px; fill: rgb(204, 96, 125); fill-opacity: 1;"/></g><g class="text"/></g></g></g><g class="overplot"/><path class="xlines-above crisp" d="M98,281H476.2" style="fill: none; stroke-width: 2px; stroke: rgb(0, 0, 0); stroke-opacity: 1;"/><path class="ylines-above crisp" d="M99,100V280" style="fill: none; stroke-width: 2px; stroke: rgb(0, 0, 0); stroke-opacity: 1;"/><g class="overlines-above"/><g class="xaxislayer-above"><path class="xtick ticks crisp" d="M0,282v5" transform="translate(192.15,0)" style="stroke: rgb(68, 68, 68); stroke-opacity: 1; stroke-width: 2px;"/><path class="xtick ticks crisp" d="M0,282v5" transform="translate(320.08000000000004,0)" style="stroke: rgb(68, 68, 68); stroke-opacity: 1; stroke-width: 2px;"/><path class="xtick ticks crisp" d="M0,282v5" transform="translate(448.02,0)" style="stroke: rgb(68, 68, 68); stroke-opacity: 1; stroke-width: 2px;"/><g class="xtick"><text text-anchor="middle" x="0" y="311" transform="translate(192.15,0)" style="font-family: FreeSans; font-size: 20px; fill: rgb(0, 0, 0); fill-opacity: 1; white-space: pre; opacity: 1;">2</text></g><g class="xtick"><text text-anchor="middle" x="0" y="311" style="font-family: FreeSans; font-size: 20px; fill: rgb(0, 0, 0); fill-opacity: 1; white-space: pre; opacity: 1;" transform="translate(320.08000000000004,0)">4</text></g><g class="xtick"><text text-anchor="middle" x="0" y="311" style="font-family: FreeSans; font-size: 20px; fill: rgb(0, 0, 0); fill-opacity: 1; white-space: pre; opacity: 1;" transform="translate(448.02,0)">6</text></g></g><g class="yaxislayer-above"><path class="ytick ticks crisp" d="M98,0h-5" transform="translate(0,276.05)" style="stroke: rgb(68, 68, 68); stroke-opacity: 1; stroke-width: 2px;"/><path class="ytick ticks crisp" d="M98,0h-5" transform="translate(0,194.92000000000002)" style="stroke: rgb(68, 68, 68); stroke-opacity: 1; stroke-width: 2px;"/><path class="ytick ticks crisp" d="M98,0h-5" transform="translate(0,113.8)" style="stroke: rgb(68, 68, 68); stroke-opacity: 1; stroke-width: 2px;"/><g class="ytick"><text text-anchor="end" x="89" y="7" transform="translate(0,276.05)" style="font-family: FreeSans; font-size: 20px; fill: rgb(0, 0, 0); fill-opacity: 1; white-space: pre; opacity: 1;">0</text></g><g class="ytick"><text text-anchor="end" x="89" y="7" style="font-family: FreeSans; font-size: 20px; fill: rgb(0, 0, 0); fill-opacity: 1; white-space: pre; opacity: 1;" transform="translate(0,194.92000000000002)">50</text></g><g class="ytick"><text text-anchor="end" x="89" y="7" style="font-family: FreeSans; font-size: 20px; fill: rgb(0, 0, 0); fill-opacity: 1; white-space: pre; opacity: 1;" transform="translate(0,113.8)">100</text></g></g><g class="overaxes-above"/></g><g class="subplot x2y2"><g class="layer-subplot"><g class="shapelayer"/><g class="imagelayer"/></g><g class="gridlayer"><g class="x2"/><g class="y2"/></g><g class="zerolinelayer"><path class="y2zl zl crisp" transform="translate(0,276.05)" d="M515.8,0h376.2" style="stroke: rgb(255, 255, 255); stroke-opacity: 1; stroke-width: 2px;"/></g><path class="xlines-below"/><path class="ylines-below"/><g class="overlines-below"/><g class="xaxislayer-below"/><g class="yaxislayer-below"/><g class="overaxes-below"/><g class="plot" transform="translate(515.8,100)" clip-path="url(#clip772fe9x2y2plot)"><g class="scatterlayer mlayer"><g class="trace scatter trace579fc8" style="stroke-miterlimit: 2; opacity: 0.7;"><g class="fills"/><g class="errorbars"/><g class="lines"><path class="js-line" d="M28.18,157.63L92.15,160.23L156.12,158.72L220.08,158.15L284.05,149.78L348.02,18.47" style="vector-effect: non-scaling-stroke; fill: none; stroke: rgb(255, 198, 196); stroke-opacity: 1; stroke-width: 4px; opacity: 1;"/></g><g class="points"><path class="point" transform="translate(28.18,157.63)" d="M7.5,0A7.5,7.5 0 1,1 0,-7.5A7.5,7.5 0 0,1 7.5,0Z" style="opacity: 1; stroke-width: 0px; fill: rgb(255, 198, 196); fill-opacity: 1;"/><path class="point" transform="translate(92.15,160.23)" d="M7.5,0A7.5,7.5 0 1,1 0,-7.5A7.5,7.5 0 0,1 7.5,0Z" style="opacity: 1; stroke-width: 0px; fill: rgb(255, 198, 196); fill-opacity: 1;"/><path class="point" transform="translate(156.12,158.72)" d="M7.5,0A7.5,7.5 0 1,1 0,-7.5A7.5,7.5 0 0,1 7.5,0Z" style="opacity: 1; stroke-width: 0px; fill: rgb(255, 198, 196); fill-opacity: 1;"/><path class="point" transform="translate(220.08,158.15)" d="M7.5,0A7.5,7.5 0 1,1 0,-7.5A7.5,7.5 0 0,1 7.5,0Z" style="opacity: 1; stroke-width: 0px; fill: rgb(255, 198, 196); fill-opacity: 1;"/><path class="point" transform="translate(284.05,149.78)" d="M7.5,0A7.5,7.5 0 1,1 0,-7.5A7.5,7.5 0 0,1 7.5,0Z" style="opacity: 1; stroke-width: 0px; fill: rgb(255, 198, 196); fill-opacity: 1;"/><path class="point" transform="translate(348.02,18.47)" d="M7.5,0A7.5,7.5 0 1,1 0,-7.5A7.5,7.5 0 0,1 7.5,0Z" style="opacity: 1; stroke-width: 0px; fill: rgb(255, 198, 196); fill-opacity: 1;"/></g><g class="text"/></g><g class="trace scatter trace561c60" style="stroke-miterlimit: 2; opacity: 0.7;"><g class="fills"/><g class="errorbars"/><g class="lines"><path class="js-line" d="M28.18,157.63L92.15,130.08L156.12,20.08L348.02,18.39" style="vector-effect: non-scaling-stroke; fill: none; stroke: rgb(204, 96, 125); stroke-opacity: 1; stroke-width: 4px; opacity: 1;"/></g><g class="points"><path class="point" transform="translate(28.18,157.63)" d="M7.5,0A7.5,7.5 0 1,1 0,-7.5A7.5,7.5 0 0,1 7.5,0Z" style="opacity: 1; stroke-width: 0px; fill: rgb(204, 96, 125); fill-opacity: 1;"/><path class="point" transform="translate(92.15,130.08)" d="M7.5,0A7.5,7.5 0 1,1 0,-7.5A7.5,7.5 0 0,1 7.5,0Z" style="opacity: 1; stroke-width: 0px; fill: rgb(204, 96, 125); fill-opacity: 1;"/><path class="point" transform="translate(156.12,20.08)" d="M7.5,0A7.5,7.5 0 1,1 0,-7.5A7.5,7.5 0 0,1 7.5,0Z" style="opacity: 1; stroke-width: 0px; fill: rgb(204, 96, 125); fill-opacity: 1;"/><path class="point" transform="translate(220.08,19.58)" d="M7.5,0A7.5,7.5 0 1,1 0,-7.5A7.5,7.5 0 0,1 7.5,0Z" style="opacity: 1; stroke-width: 0px; fill: rgb(204, 96, 125); fill-opacity: 1;"/><path class="point" transform="translate(284.05,19.88)" d="M7.5,0A7.5,7.5 0 1,1 0,-7.5A7.5,7.5 0 0,1 7.5,0Z" style="opacity: 1; stroke-width: 0px; fill: rgb(204, 96, 125); fill-opacity: 1;"/><path class="point" transform="translate(348.02,18.39)" d="M7.5,0A7.5,7.5 0 1,1 0,-7.5A7.5,7.5 0 0,1 7.5,0Z" style="opacity: 1; stroke-width: 0px; fill: rgb(204, 96, 125); fill-opacity: 1;"/></g><g class="text"/></g></g></g><g class="overplot"/><path class="xlines-above crisp" d="M513.8,281H892" style="fill: none; stroke-width: 2px; stroke: rgb(0, 0, 0); stroke-opacity: 1;"/><path class="ylines-above crisp" d="M514.8,100V280" style="fill: none; stroke-width: 2px; stroke: rgb(0, 0, 0); stroke-opacity: 1;"/><g class="overlines-above"/><g class="xaxislayer-above"><path class="x2tick ticks crisp" d="M0,282v5" transform="translate(607.9499999999999,0)" style="stroke: rgb(68, 68, 68); stroke-opacity: 1; stroke-width: 2px;"/><path class="x2tick ticks crisp" d="M0,282v5" transform="translate(735.88,0)" style="stroke: rgb(68, 68, 68); stroke-opacity: 1; stroke-width: 2px;"/><path class="x2tick ticks crisp" d="M0,282v5" transform="translate(863.8199999999999,0)" style="stroke: rgb(68, 68, 68); stroke-opacity: 1; stroke-width: 2px;"/><g class="x2tick"><text text-anchor="middle" x="0" y="311" transform="translate(607.9499999999999,0)" style="font-family: FreeSans; font-size: 20px; fill: rgb(0, 0, 0); fill-opacity: 1; white-space: pre; opacity: 1;">2</text></g><g class="x2tick"><text text-anchor="middle" x="0" y="311" style="font-family: FreeSans; font-size: 20px; fill: rgb(0, 0, 0); fill-opacity: 1; white-space: pre; opacity: 1;" transform="translate(735.88,0)">4</text></g><g class="x2tick"><text text-anchor="middle" x="0" y="311" style="font-family: FreeSans; font-size: 20px; fill: rgb(0, 0, 0); fill-opacity: 1; white-space: pre; opacity: 1;" transform="translate(863.8199999999999,0)">6</text></g></g><g class="yaxislayer-above"><path class="y2tick ticks crisp" d="M513.8,0h-5" transform="translate(0,276.05)" style="stroke: rgb(68, 68, 68); stroke-opacity: 1; stroke-width: 2px;"/><path class="y2tick ticks crisp" d="M513.8,0h-5" transform="translate(0,194.92000000000002)" style="stroke: rgb(68, 68, 68); stroke-opacity: 1; stroke-width: 2px;"/><path class="y2tick ticks crisp" d="M513.8,0h-5" transform="translate(0,113.8)" style="stroke: rgb(68, 68, 68); stroke-opacity: 1; stroke-width: 2px;"/><g class="y2tick"><text text-anchor="end" x="504.79999999999995" y="7" transform="translate(0,276.05)" style="font-family: FreeSans; font-size: 20px; fill: rgb(0, 0, 0); fill-opacity: 1; white-space: pre; opacity: 1;">0</text></g><g class="y2tick"><text text-anchor="end" x="504.79999999999995" y="7" style="font-family: FreeSans; font-size: 20px; fill: rgb(0, 0, 0); fill-opacity: 1; white-space: pre; opacity: 1;" transform="translate(0,194.92000000000002)">50</text></g><g class="y2tick"><text text-anchor="end" x="504.79999999999995" y="7" style="font-family: FreeSans; font-size: 20px; fill: rgb(0, 0, 0); fill-opacity: 1; white-space: pre; opacity: 1;" transform="translate(0,113.8)">100</text></g></g><g class="overaxes-above"/></g></g><g class="polarlayer"/><g class="smithlayer"/><g class="ternarylayer"/><g class="geolayer"/><g class="funnelarealayer"/><g class="pielayer"/><g class="iciclelayer"/><g class="treemaplayer"/><g class="sunburstlayer"/><g class="glimages"/><defs id="topdefs-772fe9"><g class="clips"/><clipPath id="legend772fe9"><rect width="80" height="100" x="0" y="0"/></clipPath></defs><g class="layer-above"><g class="imagelayer"/><g class="shapelayer"/></g><g class="infolayer"><g class="legend" pointer-events="all" transform="translate(907.84,100)"><rect class="bg" shape-rendering="crispEdges" width="80" height="100" x="0" y="0" style="stroke: rgb(68, 68, 68); stroke-opacity: 1; fill: rgb(255, 255, 255); fill-opacity: 1; stroke-width: 0px;"/><g class="scrollbox" transform="" clip-path="url(#legend772fe9)"><text class="legendtitletext" text-anchor="start" x="2" y="31.200000000000003" style="font-family: FreeSans; font-size: 24px; fill: rgb(0, 0, 0); fill-opacity: 1; white-space: pre;">meta</text><g class="groups" transform=""><g class="traces" transform="translate(0,50.7)" style="opacity: 1;"><text class="legendtext" text-anchor="start" x="40" y="7.8" style="font-family: FreeSans; font-size: 20px; fill: rgb(0, 0, 0); fill-opacity: 1; white-space: pre;">0.0</text><g class="layers" style="opacity: 0.7;"><g class="legendfill"/><g class="legendlines"><path class="js-line" d="M5,0h30" style="fill: none; stroke: rgb(255, 198, 196); stroke-opacity: 1; stroke-width: 4px;"/></g><g class="legendsymbols"><g class="legendpoints"><path class="scatterpts" transform="translate(20,0)" d="M7.5,0A7.5,7.5 0 1,1 0,-7.5A7.5,7.5 0 0,1 7.5,0Z" style="opacity: 1; stroke-width: 0px; fill: rgb(255, 198, 196); fill-opacity: 1;"/></g></g></g><rect class="legendtoggle" x="0" y="-14.5" width="75" height="29" style="fill: rgb(0, 0, 0); fill-opacity: 0;"/></g></g><g class="groups" transform=""><g class="traces" transform="translate(0,79.7)" style="opacity: 1;"><text class="legendtext" text-anchor="start" x="40" y="7.8" style="font-family: FreeSans; font-size: 20px; fill: rgb(0, 0, 0); fill-opacity: 1; white-space: pre;">1.35</text><g class="layers" style="opacity: 0.7;"><g class="legendfill"/><g class="legendlines"><path class="js-line" d="M5,0h30" style="fill: none; stroke: rgb(204, 96, 125); stroke-opacity: 1; stroke-width: 4px;"/></g><g class="legendsymbols"><g class="legendpoints"><path class="scatterpts" transform="translate(20,0)" d="M7.5,0A7.5,7.5 0 1,1 0,-7.5A7.5,7.5 0 0,1 7.5,0Z" style="opacity: 1; stroke-width: 0px; fill: rgb(204, 96, 125); fill-opacity: 1;"/></g></g></g><rect class="legendtoggle" x="0" y="-14.5" width="75" height="29" style="fill: rgb(0, 0, 0); fill-opacity: 0;"/></g></g></g><rect class="scrollbar" rx="20" ry="3" width="0" height="0" x="0" y="0" style="fill: rgb(128, 139, 164); fill-opacity: 1;"/></g><g class="g-gtitle"><text class="gtitle" x="500" y="20" text-anchor="middle" dy="0.7em" style="font-family: FreeSans; font-size: 25px; fill: rgb(0, 0, 0); opacity: 1; font-weight: normal; white-space: pre;">pMNIST meta-plasticity and Lipschitz regularization (DQ) for H=4096</text></g><g class="g-xtitle"><text class="xtitle" x="288.1" y="346.8" text-anchor="middle" style="font-family: FreeSans; font-size: 24px; fill: rgb(0, 0, 0); opacity: 1; font-weight: normal; white-space: pre;">task #</text></g><g class="g-x2title"><text class="x2title" x="703.9" y="346.8" text-anchor="middle" style="font-family: FreeSans; font-size: 24px; fill: rgb(0, 0, 0); opacity: 1; font-weight: normal; white-space: pre;">task #</text></g><g class="g-ytitle"><text class="ytitle" transform="rotate(-90,27.200000000000003,190)" x="27.200000000000003" y="190" text-anchor="middle" style="font-family: FreeSans; font-size: 24px; fill: rgb(0, 0, 0); opacity: 1; font-weight: normal; white-space: pre;">test acc (%)</text></g><g class="g-y2title"/><g class="annotation" data-index="0" style="opacity: 1;"><g class="annotation-text-g" transform="rotate(0,288.1,85.5)"><g class="cursor-pointer" transform="translate(253,71)"><rect class="bg" x="0.5" y="0.5" width="70" height="28" style="stroke-width: 1px; stroke: rgb(0, 0, 0); stroke-opacity: 0; fill: rgb(0, 0, 0); fill-opacity: 0;"/><text class="annotation-text" text-anchor="middle" x="35.34375" y="20" style="font-family: FreeSans; font-size: 20px; fill: rgb(0, 0, 0); fill-opacity: 1; white-space: pre;">β​<tspan style="font-size:70%" dy="0.3em">DQ</tspan><tspan dy="-0.21em">​</tspan>=0.0</text></g></g></g><g class="annotation" data-index="1" style="opacity: 1;"><g class="annotation-text-g" transform="rotate(0,703.9,85.5)"><g class="cursor-pointer" transform="translate(653,71)"><rect class="bg" x="0.5" y="0.5" width="100" height="28" style="stroke-width: 1px; stroke: rgb(0, 0, 0); stroke-opacity: 0; fill: rgb(0, 0, 0); fill-opacity: 0;"/><text class="annotation-text" text-anchor="middle" x="50.34375" y="20" style="font-family: FreeSans; font-size: 20px; fill: rgb(0, 0, 0); fill-opacity: 1; white-space: pre;">β​<tspan style="font-size:70%" dy="0.3em">DQ</tspan><tspan dy="-0.21em">​</tspan>=0.0006</text></g></g></g></g></svg>